<?xml version="1.0" encoding="utf-8"?>
<!-- Generator: Adobe Illustrator 24.1.1, SVG Export Plug-In . SVG Version: 6.00 Build 0)  -->
<svg version="1.1" id="Layer_1" xmlns="http://www.w3.org/2000/svg" xmlns:xlink="http://www.w3.org/1999/xlink" x="0px" y="0px"
	 viewBox="0 0 30 30" style="enable-background:new 0 0 30 30;" xml:space="preserve">
<style type="text/css">
	.st0{fill:#1E1D1E;}
	.st1{clip-path:url(#SVGID_4_);}
	.st2{opacity:0.5;fill:#252525;}
	.st3{clip-path:url(#SVGID_6_);}
	.st4{fill:#FBF9F2;}
	.st5{clip-path:url(#SVGID_8_);fill:#FBF9F2;}
	.st6{clip-path:url(#SVGID_10_);}
	.st7{clip-path:url(#SVGID_12_);}
	.st8{clip-path:url(#SVGID_14_);}
	.st9{clip-path:url(#SVGID_16_);}
	.st10{clip-path:url(#SVGID_18_);}
	.st11{clip-path:url(#SVGID_20_);}
	.st12{opacity:0.5;fill:#414241;}
	.st13{clip-path:url(#SVGID_22_);}
	.st14{opacity:0.6;clip-path:url(#SVGID_22_);fill:#252525;}
	.st15{fill:#FF0000;}
	.st16{fill:none;stroke:#ED1C24;stroke-miterlimit:10;}
	.st17{fill:none;}
	.st18{fill:#857E35;}
	.st19{clip-path:url(#SVGID_32_);}
	.st20{fill:#6A7B84;}
	.st21{clip-path:url(#SVGID_34_);}
	.st22{fill:#423E35;}
	.st23{opacity:0.8;fill:#252525;}
	.st24{fill:#ECE850;}
	.st25{fill:#FFFFFF;}
	.st26{opacity:0.9;fill:#252525;}
	.st27{fill:#8DA1AE;}
	.st28{fill:none;stroke:#ED1C24;stroke-width:3;stroke-miterlimit:10;}
	.st29{fill:#EFEFEA;}
	.st30{fill:#EAEAEA;}
	.st31{fill:none;stroke:#E6E6E6;stroke-width:0.5;stroke-miterlimit:10;}
	.st32{fill:#47403F;}
	.st33{fill:none;stroke:#47403F;stroke-width:0.7852;stroke-miterlimit:10;}
	.st34{fill:#AEADAA;}
	.st35{clip-path:url(#SVGID_50_);}
	.st36{clip-path:url(#SVGID_52_);}
	.st37{fill:#F4F2EB;}
	.st38{opacity:0.5;clip-path:url(#SVGID_68_);fill:#252525;}
	.st39{opacity:0.5;clip-path:url(#SVGID_76_);fill:#252525;}
	.st40{opacity:0.5;clip-path:url(#SVGID_84_);fill:#252525;}
	.st41{opacity:0.5;clip-path:url(#SVGID_92_);fill:#252525;}
	.st42{clip-path:url(#SVGID_102_);}
	.st43{opacity:0.6;clip-path:url(#SVGID_104_);fill:#252525;}
	.st44{opacity:0.5;clip-path:url(#SVGID_112_);fill:#252525;}
	.st45{clip-path:url(#SVGID_120_);}
	.st46{opacity:0.25;clip-path:url(#SVGID_122_);}
	.st47{opacity:0.28;clip-path:url(#SVGID_122_);}
	.st48{opacity:0.28;}
	.st49{opacity:0.43;clip-path:url(#SVGID_124_);}
	.st50{fill:#3A362F;}
	.st51{fill:#414241;}
	.st52{fill:#E2DED7;}
	.st53{fill:none;stroke:#000000;stroke-width:0.5;stroke-miterlimit:10;}
	.st54{fill:#848389;}
	.st55{fill:#D8D061;}
	.st56{fill:#99908F;}
	.st57{opacity:0.23;clip-path:url(#SVGID_126_);}
	.st58{clip-path:url(#SVGID_126_);}
	.st59{clip-path:url(#SVGID_128_);}
	.st60{clip-path:url(#SVGID_130_);}
</style>
<g>
	<g>
		<path class="st15" d="M14.93,0.58c-6.82,0-12.35,5.53-12.35,12.35c0,5.65,3.84,10.58,9.32,11.97l2.39,4.26
			c0.2,0.36,0.65,0.48,1.01,0.28c0.12-0.07,0.22-0.16,0.28-0.28l2.39-4.26c6.61-1.67,10.61-8.39,8.94-15
			C25.51,4.42,20.59,0.58,14.93,0.58z M17.3,23.53c-0.25,0.06-0.45,0.24-0.54,0.48l-1.83,3.27l-1.9-3.39
			c-0.1-0.18-0.28-0.31-0.48-0.36C6.7,22.21,3.02,16.4,4.33,10.54s7.13-9.54,12.98-8.22s9.54,7.13,8.22,12.98
			C24.61,19.41,21.41,22.62,17.3,23.53L17.3,23.53z"/>
		<path class="st15" d="M13.63,8.24c0,2.28,0.69,5.78,0.88,6.71c0.17,0.8,0.68,0.79,0.84,0c0.17-0.82,0.89-4.41,0.9-6.71
			C16.24,5.22,13.63,5.23,13.63,8.24z"/>
		<circle class="st15" cx="14.93" cy="18.32" r="1.23"/>
	</g>
</g>
</svg>
