<svg id="Layer_1" data-name="Layer 1" xmlns="http://www.w3.org/2000/svg" xmlns:xlink="http://www.w3.org/1999/xlink" viewBox="0 0 28 28"><defs><style>.cls-1{fill:none;}.cls-2{opacity:0.4;}.cls-3{clip-path:url(#clip-path);}.cls-4{fill:#857e35;}</style><clipPath id="clip-path"><rect class="cls-1" x="57.99" y="-498.8" width="1923" height="2324.04"/></clipPath></defs><g class="cls-2"><g class="cls-3"><image width="3600" height="4500" transform="translate(-259.5 -1373.76) scale(0.71)" xlink:href="../The-TLGD-website_Folder/The-TLGD-website-10_Folder/Links/Texture%209.png"/></g></g><path class="cls-4" d="M14,.79A11.27,11.27,0,0,0,11.23,23l2.18,3.88a.67.67,0,0,0,.92.26.65.65,0,0,0,.26-.26L16.76,23A11.27,11.27,0,0,0,14,.79Zm2.16,21a.68.68,0,0,0-.5.43l-1.66,3-1.73-3.09a.69.69,0,0,0-.44-.33,9.89,9.89,0,1,1,4.33,0Z"/><path class="cls-4" d="M12.8,7.78a36.66,36.66,0,0,0,.81,6.12c.16.73.62.71.76,0a36.88,36.88,0,0,0,.82-6.12C15.19,5,12.8,5,12.8,7.78Z"/><circle class="cls-4" cx="14" cy="16.97" r="1.12"/></svg>