<svg xmlns="http://www.w3.org/2000/svg" viewBox="0 0 115 115"><defs><style>.cls-1{fill:#ece850;}</style></defs><g id="services_page" data-name="services page"><path class="cls-1" d="M13.09,103.74a6.43,6.43,0,0,1-6.42-6.42V28.07a6.43,6.43,0,0,1,6.42-6.42H72.3a1.3,1.3,0,0,1,0,2.6H13.09a3.83,3.83,0,0,0-3.82,3.82v9.8h63a1.3,1.3,0,0,1,0,2.6h-63V97.32a3.83,3.83,0,0,0,3.82,3.82h89.07A3.82,3.82,0,0,0,106,97.32V40.47H99.19a1.3,1.3,0,0,1,0-2.6H106v-9.8a3.82,3.82,0,0,0-3.82-3.82h-3a1.3,1.3,0,1,1,0-2.6h3a6.43,6.43,0,0,1,6.42,6.42V97.32a6.43,6.43,0,0,1-6.42,6.42Z"/><path class="cls-1" d="M16.86,32.22A1.18,1.18,0,1,1,18,31.05,1.17,1.17,0,0,1,16.86,32.22Z"/><path class="cls-1" d="M22.6,32.22a1.18,1.18,0,1,1,1.17-1.17A1.17,1.17,0,0,1,22.6,32.22Z"/><path class="cls-1" d="M28.34,32.18a1.17,1.17,0,0,1,0-2.34,1.17,1.17,0,1,1,0,2.34Z"/><path class="cls-1" d="M23.31,82.63a1.3,1.3,0,0,1-1.3-1.3V49.41a1.3,1.3,0,0,1,1.3-1.3H53.43a1.3,1.3,0,0,1,1.3,1.3V81.33a1.3,1.3,0,0,1-1.3,1.3Zm1.3-2.6H52.13V50.71H24.61Z"/><path class="cls-1" d="M64.05,50.71a1.3,1.3,0,1,1,0-2.6H72.3a1.3,1.3,0,1,1,0,2.6Z"/><path class="cls-1" d="M64.05,61.41a1.3,1.3,0,0,1,0-2.6H72.3a1.3,1.3,0,0,1,0,2.6Z"/><path class="cls-1" d="M64.05,72.11a1.3,1.3,0,0,1,0-2.6H72.3a1.3,1.3,0,0,1,0,2.6Z"/><path class="cls-1" d="M64.05,82.81a1.31,1.31,0,0,1,0-2.61H72.3a1.31,1.31,0,0,1,0,2.61Z"/><path class="cls-1" d="M22.78,93.51a1.31,1.31,0,0,1,0-2.61h16a1.31,1.31,0,0,1,0,2.61Z"/><path class="cls-1" d="M78.45,93.51a1.31,1.31,0,0,1,0-2.61h14a1.31,1.31,0,0,1,0,2.61Z"/><path class="cls-1" d="M45.23,93.51a1.31,1.31,0,0,1,0-2.61H71.77a1.31,1.31,0,0,1,0,2.61Z"/><path class="cls-1" d="M38.37,66.5a5.79,5.79,0,1,1,5.79-5.79A5.79,5.79,0,0,1,38.37,66.5Zm0-9a3.19,3.19,0,1,0,3.18,3.19A3.19,3.19,0,0,0,38.37,57.52Z"/><path class="cls-1" d="M47.09,75.82a1.32,1.32,0,0,1-.92-.38l-.68-.68a10,10,0,0,0-14.23,0l-.69.68a1.3,1.3,0,0,1-.92.38h0a1.3,1.3,0,0,1-.92-2.22l.68-.68a12.65,12.65,0,0,1,17.92,0l.68.68a1.3,1.3,0,0,1-.92,2.22Z"/><path class="cls-1" d="M86.74,81.28a1.12,1.12,0,0,1-.95-.54L80.5,71.66l-.06-.11a1.52,1.52,0,0,1-.06-.2,1.39,1.39,0,0,1,0-.24V23.62a3.27,3.27,0,0,1,2.39-3.14l.31-.09V16.84a3.7,3.7,0,1,1,7.39,0v3.55l.31.09a3.28,3.28,0,0,1,2.39,3.15V71.11a1.23,1.23,0,0,1,0,.19c0,.12-.05.18-.07.24a.67.67,0,0,1-.06.12L87.7,80.74A1.12,1.12,0,0,1,86.74,81.28Zm0-3.29,3.37-5.78H83.38Zm-4.19-8h8.37V29.36H87.85V50.69a1.11,1.11,0,0,1-2.21,0V29.36H82.56Zm1.06-47.45a1.07,1.07,0,0,0-1.06,1.06v3.53h8.37V23.63a1.07,1.07,0,0,0-1.07-1.07Zm3.12-7.21a1.49,1.49,0,0,0-1.49,1.49v3.51h3V16.84A1.5,1.5,0,0,0,86.74,15.35Z"/></g></svg>