<svg xmlns="http://www.w3.org/2000/svg" viewBox="0 0 115 115"><defs><style>.cls-1{fill:#ece850;}</style></defs><g id="services_page" data-name="services page"><path class="cls-1" d="M41.38,14.11V28.63H12.12V74.74h7.46L31.2,88.62V74.74H41.38v28H94.94V72.27h0V14.11ZM27.88,71.42v9.15L21,71.43H15.45V32h49.3V71.42Zm63.74-.57h0V99.46H75.24a1.19,1.19,0,0,0-.42,0H44.7V74.74H68.06V28.63H44.7V17.43H91.62Z"/><path class="cls-1" d="M60,23.61H76.29a1.66,1.66,0,0,0,0-3.32H60a1.66,1.66,0,0,0,0,3.32Z"/><path class="cls-1" d="M48.18,38.32c-.25,0-.5,0-.78,0A8.14,8.14,0,0,0,43,39.6a8.24,8.24,0,0,0-1.2.92,7.64,7.64,0,0,0-1,1.1,8.24,8.24,0,0,0-6.61-3.29c-.26,0-.53,0-.78,0a7.22,7.22,0,0,0-5.95,4.31,7.74,7.74,0,0,0,.77,7.73L39.56,65a1.65,1.65,0,0,0,1.34.68h.18A1.6,1.6,0,0,0,42.24,65l11.2-14.68a7.72,7.72,0,0,0,.71-7.73A7.23,7.23,0,0,0,48.18,38.32Zm2.55,10.07L40.88,61.2l-10-12.73A4.45,4.45,0,0,1,30.48,44a3.89,3.89,0,0,1,3.24-2.36l.47,0a5,5,0,0,1,5,4.7,1.66,1.66,0,0,0,1.66,1.56,1.14,1.14,0,0,0,.32-.06,1.65,1.65,0,0,0,1.34-1.52,5.08,5.08,0,0,1,.19-1.1,4.86,4.86,0,0,1,1-1.87,4.94,4.94,0,0,1,3.74-1.76l.46,0A3.91,3.91,0,0,1,51.13,44,4.43,4.43,0,0,1,50.73,48.39Z"/><path class="cls-1" d="M69.61,85.9A3.41,3.41,0,1,0,73,89.3,3.41,3.41,0,0,0,69.61,85.9Zm0,5.36a2,2,0,1,1,2-2A2,2,0,0,1,69.61,91.26Z"/></g></svg>