<svg xmlns="http://www.w3.org/2000/svg" viewBox="0 0 115 115"><defs><style>.cls-1{fill:#ece850;}</style></defs><g id="services_page" data-name="services page"><path class="cls-1" d="M65.72,49.65A14.53,14.53,0,1,0,80.25,64.18,14.55,14.55,0,0,0,65.72,49.65Zm0,26.27A11.58,11.58,0,1,1,77.32,64.34,11.57,11.57,0,0,1,65.74,75.92Z"/><path class="cls-1" d="M98.7,57.49a1.5,1.5,0,0,0-1.8,0,1.62,1.62,0,0,0-.7,1.7,27.29,27.29,0,0,1,0,10.4,1.81,1.81,0,0,0,.7,1.7,1.5,1.5,0,0,0,1.8,0,8.23,8.23,0,0,0,3.7-6.9A8.5,8.5,0,0,0,98.7,57.49Zm-.8,12.3a32.7,32.7,0,0,0,.5-5.3,32.87,32.87,0,0,0-.5-5.4,6.38,6.38,0,0,1,2.8,5.4A6.6,6.6,0,0,1,97.9,69.79Z"/><path class="cls-1" d="M106.7,45.68,104,40a7.11,7.11,0,0,0-3.56-3.34l-9.8-4a26.51,26.51,0,0,1-5.59-3.14l-1-.7L82.73,24A7.05,7.05,0,0,0,76,18.89H55.55A7.05,7.05,0,0,0,48.77,24l-1.34,4.51a.48.48,0,0,0-.11.15L46,29.81c-.42.35-2.71,1.58-3.27,1.88l-.29-2a2.34,2.34,0,0,0-.89-1.41,2.17,2.17,0,0,0-1.28-.43,2.27,2.27,0,0,0-.41,0L27,30.2a2.32,2.32,0,0,0-1.4.89,2.11,2.11,0,0,0-.39,1.7l.48,2.72L15.94,37.8a6.72,6.72,0,0,0-4.53,3.46L9.2,45.47a7.14,7.14,0,0,0-.52,1.24A12,12,0,0,0,7.85,51v38.7a8.31,8.31,0,0,0,8.3,8.3h11.4A2.5,2.5,0,0,0,30,95.69H99.55a8.31,8.31,0,0,0,8.3-8.3V50.69A12.12,12.12,0,0,0,106.7,45.68Zm-55.37-21a4.32,4.32,0,0,1,4.12-3.14h20.4A4.32,4.32,0,0,1,80,24.63l1,3.56H50.31Zm-1.8,6.16H81.87L85.34,43a28.71,28.71,0,0,0-19.59-7.68A29.14,29.14,0,0,0,46.05,43Zm-9.83-.58.47,2.11L28.27,35l-.43-2.49ZM13.9,42.52a3.61,3.61,0,0,1,2.76-2l3.95-.91L27.4,38c.37,0,.71.31,1,.84a2.17,2.17,0,0,1,.11,2.1s-1.46,2.22-1.87,2.62a6.78,6.78,0,0,1-.84.66,7.59,7.59,0,0,1-1.07.53,4.32,4.32,0,0,1-1,.28c-.44.07-1.3.16-1.3.16l-10.22.47ZM27.35,52.89v42.3H16.15a5.6,5.6,0,0,1-5.6-5.6V51a9.69,9.69,0,0,1,.38-2.51l13.52-.59a5.5,5.5,0,0,0,4.63-2.74l1.69-2.78a4.66,4.66,0,0,0,0-4.86l-.2-.29,12.5-2.84c.42-.11.73-.21,1-.32a10.74,10.74,0,0,0,2-.9L41.9,47.74a4.16,4.16,0,0,0-.32.45H32.05A4.71,4.71,0,0,0,27.35,52.89Zm2.7,40V53a2,2,0,0,1,2-2h7.86a29.12,29.12,0,0,0,20,41.9Zm9.3-28.5a26.4,26.4,0,1,1,26.4,26.4A26.38,26.38,0,0,1,39.35,64.39Zm65.8,22.9a5.6,5.6,0,0,1-5.6,5.6H71.64a29.11,29.11,0,0,0,18.07-45l-4.3-15a21.39,21.39,0,0,0,4.25,2.17l9.82,4a3.68,3.68,0,0,1,2.12,2l2.7,5.69a9.34,9.34,0,0,1,.85,3.89Z"/><path class="cls-1" d="M36.65,46.05a3.26,3.26,0,1,0-3.25-3.26A3.26,3.26,0,0,0,36.65,46.05Zm0-5a1.78,1.78,0,1,1-1.77,1.77A1.78,1.78,0,0,1,36.65,41Z"/></g></svg>