<svg xmlns="http://www.w3.org/2000/svg" viewBox="0 0 115 115"><defs><style>.cls-1{fill:#ece850;}</style></defs><g id="services_page" data-name="services page"><path class="cls-1" d="M14.53,41.41a31,31,0,0,0,5.44.48,31.25,31.25,0,0,0,5.53-.5c1.47-.15,2.78-.38,3.65-.53l.26,0,.9.9a1.31,1.31,0,0,0,.93.39h0a1.38,1.38,0,0,0,.91-.4,1.35,1.35,0,0,0,0-1.9l-1.43-1.43a1.34,1.34,0,0,0-.94-.38,1.55,1.55,0,0,0-.45.07,43,43,0,0,1-4.33.67c-2.3.23-4.32.35-6,.35a13.19,13.19,0,0,1-3.81-.36c-3.42-1-6-8-6.29-17l0-1.26,9.47,9.49a1.33,1.33,0,0,0,.94.39,1.35,1.35,0,0,0,.62-.15l5.19-2.61a2.63,2.63,0,0,0,.39-.26,2.89,2.89,0,0,0,.27-.37l2.58-5.21a1.34,1.34,0,0,0-.25-1.56l-9.43-9.6,1.25,0c9,.29,15.95,2.84,17,6.24.27.63.8,2.86,0,9.91-.15,1.37-.38,2.83-.69,4.4a2.36,2.36,0,0,0,0,.25,1.38,1.38,0,0,0,.39,1l.23.23a1.33,1.33,0,0,0,.94.39,1.35,1.35,0,0,0,1-.4,1.33,1.33,0,0,0,.3-1.42l0-.13,0-.14c.16-.84.39-2.22.59-3.95a30.79,30.79,0,0,0-.1-10.87c-1.58-4.94-10-8.13-21.42-8.13-.88,0-1.78,0-2.7.05a1.29,1.29,0,0,0-.9.4,1.34,1.34,0,0,0,0,1.9l11,11-2,4-4,2.09-11-11a1.35,1.35,0,0,0-.95-.38,1.37,1.37,0,0,0-.49.09,1.33,1.33,0,0,0-.86,1.19C5.82,29.91,9.1,39.62,14.53,41.41Z"/><path class="cls-1" d="M113.17,87.61A16.08,16.08,0,0,0,98,76.82a15.88,15.88,0,0,0-5.28.9l-.3.1-1.27-1.27a1.31,1.31,0,0,0-1-.4,1.35,1.35,0,0,0-1,.4,1.36,1.36,0,0,0,0,1.91l1.85,1.84a1.34,1.34,0,0,0,1,.39,1.49,1.49,0,0,0,.54-.11,13.18,13.18,0,0,1,5.32-1.11,13.45,13.45,0,0,1,5.13,1,13.39,13.39,0,1,1-17.49,7.24,1.32,1.32,0,0,0-.3-1.46l-3.18-3.19a1.38,1.38,0,0,0-1-.39,1.34,1.34,0,0,0-.95.39,1.39,1.39,0,0,0-.4,1,1.35,1.35,0,0,0,.4.95l2.57,2.57-.09.3a16.06,16.06,0,0,0,15.22,21l.47.06h0a16.07,16.07,0,0,0,14.81-21.35Z"/><path class="cls-1" d="M96.07,101.32h0a1.4,1.4,0,0,0,.34,0l7.16-2a1.35,1.35,0,0,0,.93-1l1.85-7.13a1.36,1.36,0,0,0-.37-1.35l-5.25-5.16a1.34,1.34,0,0,0-.95-.39,1.44,1.44,0,0,0-.4.06l-7.09,2a1.37,1.37,0,0,0-1,1L89.5,94.43a1.34,1.34,0,0,0,.37,1.35l5.24,5.15A1.36,1.36,0,0,0,96.07,101.32ZM93.76,88.71l5.61-1.55,4.09,4.09L102,96.89l-5.61,1.55-4.09-4.09Z"/><path class="cls-1" d="M92.87,28.3l-5.45-5.07a19.2,19.2,0,0,0-27.11,1L33.23,53.36A22.92,22.92,0,0,0,32.72,84s0,0,0,0S22.53,97,14,97.17a7.52,7.52,0,0,1-6.12-3,1.5,1.5,0,0,0-2.31,1.92,10.48,10.48,0,0,0,8.28,4.1h.21c9.34-.18,19.22-12.11,20.78-14.06A22.9,22.9,0,0,0,66.8,84.56L93.88,55.42A19.21,19.21,0,0,0,92.87,28.3ZM58.24,30.06c-.15,2.63-2.84,8.09-8.44,14.12s-10.85,9-13.46,9.44Zm8.13,51.35c.15-2.62,2.82-8.08,8.43-14.12s10.85-9.05,13.46-9.44ZM90.24,55.72c-3.87-1.53-11.31,3.58-17.24,10S62.58,79.85,64.35,83.62A20.46,20.46,0,0,1,34.41,55.8c3.87,1.45,11.31-3.61,17.22-10s10.44-14.19,8.64-18l1.83-2A16.74,16.74,0,0,1,85.74,25l1.83,1.71-3.19,3.43a5,5,0,0,0-6,1l-8.68,9.33a5,5,0,0,0-.54,6.12l-4,4.32a1.23,1.23,0,0,0,1.66,1.82,1,1,0,0,0,.14-.15l4-4.31a5,5,0,0,0,6.06-1l8.69-9.35A4.94,4.94,0,0,0,87,34.36a4.77,4.77,0,0,0-.81-2.53l3.19-3.43,1.82,1.69a16.75,16.75,0,0,1,.9,23.65ZM83.85,36.26l-8.69,9.35a2.52,2.52,0,0,1-3.58.14h0a2.55,2.55,0,0,1-.13-3.59l8.69-9.35a2.53,2.53,0,0,1,3.71,3.45Z"/></g></svg>