<svg xmlns="http://www.w3.org/2000/svg" viewBox="0 0 103.4 102.09"><defs><style>.cls-1{fill:#e9e853;}</style></defs><g id="Layer_2" data-name="Layer 2"><path class="cls-1" d="M91.46,27.45q-3.85-.3-7.71-.4a1.25,1.25,0,0,0-1.24,1.3V58.86a1.25,1.25,0,0,0,1.24,1.3q3.85-.09,7.71-.38c6.15-.54,9.39-4.46,9.39-10.78V38.28C100.85,32,97.61,28,91.46,27.45ZM100,49c0,6-2.78,9.34-8.52,9.81q-3.85.27-7.71.36a.37.37,0,0,1-.37-.36V28.36a.37.37,0,0,1,.37-.36q3.85.11,7.71.38c5.74.49,8.52,3.87,8.52,9.85Z"/><path class="cls-1" d="M91,34.61l-2.26-.09V52.89L91,52.81c2.2-.1,3.67-.8,3.67-3.78V38.4C94.65,35.41,93.18,34.71,91,34.61Zm2.8,14.45c0,2.06-.66,2.73-2.8,2.81l-1.39.05V35.49l1.39,0c2.14.09,2.8.76,2.8,2.83Z"/><path class="cls-1" d="M69.77,65.08a25.79,25.79,0,0,0-11.29,3.4l-.91.55c-.18.11-.36.24-.54.36a53.67,53.67,0,0,0-13.59-6l-1-.23c.73-1.73,1.76-4.42,2.9-7.43,3.89-1.06,7.81-3.93,11-6.25.78-.56,1.54-1.15,2.29-1.75,0,1.3,0,2.45,0,3.24a9.66,9.66,0,0,0,2.63,6.48,10,10,0,0,0,6.52,3.08c.47.05,1,.12,1.64.17,2.24.16,5.17-.06,7.08-2.2A7.81,7.81,0,0,0,78.19,54a93.37,93.37,0,0,0,0-9.6,1,1,0,0,0-1-1.08H70.1a1,1,0,0,0-1,1.06v3.81a1.05,1.05,0,0,0,1,1.07l1.49,0c0,.53,0,1.66-.1,2.85a1.44,1.44,0,0,1-.61,1.1,3.17,3.17,0,0,1-2.81.1c-1.32-.48-1.88-1.82-1.93-4.59-.07-3.61,0-12,0-12.06a1.94,1.94,0,0,1,3.35-1.08c.86,1.08.48,3.22.47,3.24v.1a1,1,0,0,0,1,1l5.47-.05a1.05,1.05,0,0,0,1-1.08V36.24c0-3.62-.89-6.11-2.82-7.52a36.27,36.27,0,0,0,3.7-12.91,15.64,15.64,0,0,0-.87-7.51A8.72,8.72,0,0,0,72.2,3.36,12.75,12.75,0,0,0,61.69,4.55c-3.55,2.15-6.61,5.69-9.11,10.55a84.91,84.91,0,0,0-4.79,12.3c-.13.38-.26.76-.38,1.15-2.26,6.79-4.76,13.62-7.3,20.42-4.16.75-9.41-1-11.52-5.77A12.85,12.85,0,0,1,29.51,32c2.3-3.95,5.57-5.26,9.34-6.78l1.35-.54a3.17,3.17,0,0,0,1.58-1.69,1,1,0,0,1,0-.1v-.23A3.09,3.09,0,0,0,41,20.2a2.85,2.85,0,0,0-2.12-.95,5.86,5.86,0,0,0-1.6.18c-6.53,1.57-12,5.26-14.9,10.18a17.88,17.88,0,0,0-2,13.79,16.42,16.42,0,0,0,5.51,8.13,20.36,20.36,0,0,0,11.5,4.69l-1.14,3c-.38,1-.77,2.06-1.16,3.09a35.36,35.36,0,0,0-16.4,3.84A32.3,32.3,0,0,0,5.28,79.48,21.76,21.76,0,0,0,2.55,88a11.57,11.57,0,0,0,2.34,8.45c2.44,2.82,6,3,8,2.85h0c4.72-.38,9.68-3.11,14-7.56,6.37-6.65,10.53-15.45,13.45-22.37A52.29,52.29,0,0,1,52,73.59c-.47.5-.92,1-1.32,1.46-5.15,6.11-8.16,14.39-7.5,20.6.25,2.28,1.06,2.65,2.36,3a3.1,3.1,0,0,0,1.42.07,3.33,3.33,0,0,0,1.11-.38,2.31,2.31,0,0,0,1.15-1.47c.09-.38.17-1.12.28-2.14a50.57,50.57,0,0,1,.94-6.14A23.71,23.71,0,0,1,57.19,77a62.49,62.49,0,0,0,5.72,4A22.51,22.51,0,0,0,81.1,83.35,11.2,11.2,0,0,0,87.82,78c.78-1.69.86-4.59-1.27-7.57C84.54,67.64,80,64.43,69.77,65.08ZM55.82,48.68c-3.08,2.22-6.54,4.75-10,5.87l.8-2.11c.48-1.26,1-2.53,1.44-3.77l0,.08c3.32-1.84,7.55-5.89,10.62-9.2,0,1.91,0,4.58,0,7C57.73,47.25,56.79,48,55.82,48.68ZM58.69,37s0,.45,0,1.16c-2.77,3.06-6.83,7.08-10.15,9.21,1.1-2.87,2.13-5.46,2.89-7.22,1-2.26,1.89-4.54,2.77-6.73,2.21-5.49,4.29-10.63,7.37-15.29,1.59-2.4,4.62-6.24,7.57-6.21a2.45,2.45,0,0,1,.46,0,.84.84,0,0,1,.83.77c.1.64.59,5.37-4.63,15.05A9.17,9.17,0,0,0,58.69,37Zm17.85-.72v2.58a.13.13,0,0,1-.12.12c-1.83,0-3.65,0-5.47.06a.12.12,0,0,1-.12-.09c.07-.42.37-2.65-.66-4A2.52,2.52,0,0,0,67.93,34a2.69,2.69,0,0,0-2.67,2.66c0,.08-.06,8.35,0,12,0,2.25.38,4.66,2.56,5.47A3.82,3.82,0,0,0,71.38,54a2.32,2.32,0,0,0,1-1.8c.11-1.68.1-3.23.1-3.25a.61.61,0,0,0-.58-.63l-1.78,0a.13.13,0,0,1-.12-.12V44.35a.13.13,0,0,1,.12-.12h7.13a.13.13,0,0,1,.13.14,94.91,94.91,0,0,1,0,9.5,6.82,6.82,0,0,1-1.4,3.93c-2.15,2.41-5.85,2-8.06,1.77h0A8.74,8.74,0,0,1,59.56,51c-.1-3.46,0-14,0-14.06,0-4.62,3-8,8-8.58l.38,0C74.13,27.87,76.54,30.26,76.54,36.25ZM26.44,50.7a15.53,15.53,0,0,1-5.18-7.63,16.64,16.64,0,0,1,1.88-12.88c2.81-4.7,8-8.24,14.34-9.77a4.91,4.91,0,0,1,1.36-.16,2,2,0,0,1,1.49.64,2.09,2.09,0,0,1,.58,1.65v0a2,2,0,0,1-1,1.1l-1.34.54c-3.76,1.51-7.32,2.93-9.8,7.17a14,14,0,0,0-1,12.27c2.21,5.05,7.55,7,11.94,6.39q-1,2.6-1.94,5.17A19.41,19.41,0,0,1,26.44,50.7Zm10.67,8.89c3.81-10.14,7.75-20.47,11.16-30.71l.39-1.15a85.42,85.42,0,0,1,4.73-12.15c2.42-4.69,5.37-8.11,8.77-10.17a11.81,11.81,0,0,1,9.75-1.13,7.76,7.76,0,0,1,4.68,4.39,14.91,14.91,0,0,1,.79,7.06,35.15,35.15,0,0,1-3.57,12.5,10.89,10.89,0,0,0-5.87-.85l-.4,0L67,27.5c4.84-9.22,4.5-13.89,4.34-14.95A1.78,1.78,0,0,0,69.71,11c-3.56-.56-7.11,3.85-8.9,6.56-3.14,4.75-5.24,9.94-7.47,15.48-.87,2.19-1.78,4.45-2.76,6.71-1.2,2.78-3.06,7.63-4.85,12.37l-1,2.77h0c-1.25,3.32-2.39,6.29-3.14,8.08a34,34,0,0,0-5.46-.61C36.42,61.42,36.76,60.5,37.11,59.59Zm2.71,8.67c-7.74-1.39-16.15,2.9-19.4,4.86A22.13,22.13,0,0,0,11,83.73c-1,2.54-1.17,5.89.85,7.21a3.69,3.69,0,0,0,2.59.44,11.22,11.22,0,0,0,5.45-2.81c5.89-4.88,10-12.19,13.59-19.28h0a19.45,19.45,0,0,1,5.94,0C36.55,76,32.48,84.6,26.29,91c-4.11,4.27-8.85,6.88-13.35,7.25h0c-1.81.14-5.12,0-7.33-2.57a10.64,10.64,0,0,1-2.09-7.64A20.51,20.51,0,0,1,6.06,80a31.47,31.47,0,0,1,13-12.9,34.79,34.79,0,0,1,24.14-2.75A52.6,52.6,0,0,1,56.13,70a28.58,28.58,0,0,0-2.8,2.29l-.57.53A52,52,0,0,0,39.82,68.26Zm-7.43,1.2c-3.45,6.78-7.43,13.68-13,18.29a10.38,10.38,0,0,1-5,2.59,2.94,2.94,0,0,1-2-.32c-1.47-1-1.37-3.7-.5-5.89a21.08,21.08,0,0,1,9-10.1A36.29,36.29,0,0,1,32.39,69.46Zm54.5,8.18c-.66,1.71-3,3.76-6.1,4.75a21.48,21.48,0,0,1-17.35-2.22A57.56,57.56,0,0,1,58,76.3a19.41,19.41,0,0,1,4.16-2.62l-.07.08c4.81,3.82,10.69,5.64,15,4.61,2.8-.66,3.77-2.42,3.49-3.87C80,72,76,69.72,68.16,70.86l-.42.07C54.17,73.14,50.34,84.84,49.48,88.4a52.09,52.09,0,0,0-.95,6.27c-.1.91-.18,1.7-.26,2a1.3,1.3,0,0,1-.67.83,2.49,2.49,0,0,1-1.73.23c-1.1-.34-1.47-.46-1.65-2.2-.53-5,1.51-13,7.26-19.83a26.35,26.35,0,0,1,15.87-9.34c.8-.13,1.63-.22,2.49-.28,9.76-.63,14,2.35,15.89,5A7,7,0,0,1,86.89,77.64ZM63.07,73.26a22.39,22.39,0,0,1,5.24-1.4c7.57-1.11,10.9,1.15,11.22,2.83.23,1.19-.84,2.25-2.73,2.7C73,78.3,67.51,76.65,63.07,73.26Z"/></g></svg>