<?xml version="1.0" encoding="utf-8"?>
<!-- Generator: Adobe Illustrator 24.1.2, SVG Export Plug-In . SVG Version: 6.00 Build 0)  -->
<svg version="1.1" xmlns="http://www.w3.org/2000/svg" xmlns:xlink="http://www.w3.org/1999/xlink" x="0px" y="0px"
	 viewBox="0 0 244.21 177.83" style="enable-background:new 0 0 244.21 177.83;" xml:space="preserve">
<style type="text/css">
	.st0{stroke:#000000;stroke-width:0.5;stroke-miterlimit:10;}
	.st1{stroke:#000000;stroke-width:0.75;stroke-miterlimit:10;}
	.st2{stroke:#000000;stroke-width:0.8;stroke-miterlimit:10;}
	.st3{stroke:#000000;stroke-width:0.25;stroke-miterlimit:10;}
	.st4{fill:none;stroke:#000000;stroke-width:3.75;stroke-linecap:round;stroke-miterlimit:10;}
	.st5{fill:none;stroke:#000000;stroke-width:4;stroke-linecap:round;stroke-miterlimit:10;}
	.st6{fill:#EBE851;}
	.st7{fill:#FFFFFF;}
	.st8{display:none;}
	.st9{display:inline;fill:none;stroke:#00AEEF;stroke-width:0.75;stroke-linecap:round;stroke-miterlimit:10;}
	.st10{opacity:0.8;fill:#262525;}
	.st11{opacity:0.9;fill:#262525;}
</style>
<g id="Layer_1">
	<g>
		<path class="st6" d="M39.89,122.19h-5.03c-1.17,0-2.12,0.72-2.12,1.6s0.95,1.6,2.12,1.6h0.87c1.26,0,2.62,0.33,2.62,1.06v0.81
			c0,3.65-3.04,5.32-5.85,5.32s-5.85-1.66-5.85-5.32v-8.12c0-3.65,3.03-5.32,5.85-5.32c2.03,0,3.85,0.81,4.88,2.17
			c0.67,0.89,1.69,2.07,2.77,2.07c0.48,0,0.93-0.23,1.21-0.61c0.28-0.39,0.34-0.88,0.17-1.38c-1.2-3.48-4.57-5.56-9.02-5.56
			c-5.78,0-9.52,3.39-9.52,8.62v8.12c0,5.24,3.74,8.63,9.52,8.63s9.52-3.39,9.52-8.63v-2.95C42.01,123.14,41.06,122.19,39.89,122.19
			z"/>
		<path class="st6" d="M74.04,135.08c0.16-0.29,0.09-0.72-0.2-1.17l-4.46-7c-0.34-0.54-0.44-1.1-0.29-1.62
			c0.17-0.59,0.67-1.09,1.39-1.42c2.42-1.1,3.7-3.2,3.7-6.07c0-4.34-3.03-6.94-8.12-6.94h-8.33c-1.17,0-2.12,0.95-2.12,2.12v20.42
			c0,1.17,0.82,2.12,1.83,2.12s1.83-0.95,1.83-2.12v-6.08c0-1.44,1.06-2.62,2.37-2.62c1.27,0,2.85,0.93,3.6,2.11l4.34,6.82
			c0.66,1.04,2.18,1.88,3.4,1.88C73.51,135.52,73.88,135.36,74.04,135.08z M61.89,121.51c-1.44,0-2.62-1.17-2.62-2.62v-2.09
			c0-1.44,1.17-2.62,2.62-2.62h4.17c2.74,0,4.38,1.37,4.38,3.66s-1.64,3.66-4.38,3.66H61.89z"/>
		<path class="st6" d="M106.76,135.06c0.24-0.35,0.26-0.87,0.05-1.41l-7.85-20.72c-0.43-1.13-1.66-2.05-2.75-2.05
			c-1.09,0-2.32,0.92-2.75,2.05l-7.86,20.72c-0.21,0.55-0.19,1.06,0.05,1.41c0.21,0.3,0.57,0.46,1.01,0.46
			c1.08,0,2.32-0.92,2.75-2.05l0.62-1.64c0.5-1.31,2.04-2.38,3.44-2.38h5.46c1.4,0,2.95,1.07,3.44,2.38l0.62,1.64
			c0.43,1.13,1.66,2.05,2.75,2.05C106.19,135.52,106.55,135.36,106.76,135.06z M99.26,125.64c-0.34,0.49-0.92,0.76-1.64,0.76h-2.81
			c-0.72,0-1.3-0.27-1.64-0.76c-0.34-0.49-0.38-1.13-0.13-1.8l2.1-5.56c0.35-0.94,0.82-1.08,1.07-1.08s0.72,0.14,1.07,1.08l2.1,5.56
			C99.64,124.51,99.59,125.15,99.26,125.64z"/>
		<path class="st6" d="M122.28,133.4v-3.96c0-1.44,1.17-2.62,2.62-2.62h3.82c6.59,0,8.93-4.12,8.93-7.98c0-3.86-2.35-7.98-8.93-7.98
			h-7.98c-1.17,0-2.12,0.95-2.12,2.12v20.42c0,1.17,0.82,2.12,1.83,2.12S122.28,134.57,122.28,133.4z M122.28,116.73
			c0-1.44,1.17-2.62,2.62-2.62h3.82c3.25,0,5.19,1.76,5.19,4.7c0,2.95-1.94,4.71-5.19,4.71h-3.82c-1.44,0-2.62-1.17-2.62-2.62
			V116.73z"/>
		<path class="st6" d="M156.16,124.74h6.47c1.44,0,2.62,1.17,2.62,2.62v6.04c0,1.17,0.82,2.12,1.83,2.12s1.83-0.95,1.83-2.12v-20.42
			c0-1.17-0.82-2.12-1.83-2.12s-1.83,0.95-1.83,2.12v5.83c0,1.44-1.17,2.62-2.62,2.62h-6.47c-1.44,0-2.62-1.17-2.62-2.62v-5.83
			c0-1.17-0.82-2.12-1.83-2.12s-1.83,0.95-1.83,2.12v20.42c0,1.17,0.82,2.12,1.83,2.12s1.83-0.95,1.83-2.12v-6.04
			C153.54,125.92,154.72,124.74,156.16,124.74z"/>
		<path class="st6" d="M187.4,112.99c0-1.17-0.82-2.12-1.83-2.12s-1.83,0.95-1.83,2.12v20.42c0,1.17,0.82,2.12,1.83,2.12
			s1.83-0.95,1.83-2.12V112.99z"/>
		<path class="st6" d="M219.97,130.22c0.17-0.5,0.1-0.99-0.18-1.38c-0.28-0.38-0.73-0.61-1.21-0.61c-1.08,0-2.06,1.19-2.7,2.09
			c-1.01,1.41-2.86,2.26-4.95,2.26c-2.82,0-5.85-1.66-5.85-5.32v-8.12c0-3.65,3.03-5.32,5.85-5.32c2.08,0,3.93,0.84,4.95,2.26
			c0.64,0.9,1.62,2.09,2.7,2.09c0.49,0,0.94-0.23,1.22-0.61c0.29-0.39,0.35-0.88,0.19-1.38c-1.16-3.54-4.54-5.66-9.06-5.66
			c-5.78,0-9.52,3.39-9.52,8.62v8.12c0,5.24,3.74,8.63,9.52,8.63C215.41,135.88,218.79,133.76,219.97,130.22z"/>
		<path class="st6" d="M22.19,150.97h-7.4c-1.17,0-2.12,0.95-2.12,2.12v20.41c0,1.17,0.95,2.12,2.12,2.12h7.4
			c5.78,0,9.52-3.39,9.52-8.62v-7.4C31.71,154.36,27.98,150.97,22.19,150.97z M28.05,166.93c0,3.7-3.04,5.39-5.85,5.39h-3.23
			c-1.44,0-2.62-1.17-2.62-2.62v-12.8c0-1.44,1.17-2.62,2.62-2.62h3.23c2.82,0,5.85,1.69,5.85,5.39V166.93z"/>
		<path class="st6" d="M51.67,154.28h7.17c1.17,0,2.12-0.74,2.12-1.65s-0.95-1.65-2.12-1.65H47.51c-1.17,0-2.12,0.95-2.12,2.12
			v20.41c0,1.17,0.95,2.12,2.12,2.12h11.33c1.17,0,2.12-0.74,2.12-1.65c0-0.91-0.95-1.65-2.12-1.65h-7.17
			c-1.44,0-2.62-1.17-2.62-2.62v-2.23c0-1.44,1.17-2.62,2.62-2.62h7.17c1.17,0,2.12-0.74,2.12-1.65s-0.95-1.65-2.12-1.65h-7.17
			c-1.44,0-2.62-1.17-2.62-2.62v-2.02C49.05,155.46,50.22,154.28,51.67,154.28z"/>
		<path class="st6" d="M84.86,162.1l-4.67-1.04c-2.14-0.47-3.27-1.71-3.27-3.59c0-2.26,1.76-3.56,4.84-3.56
			c1.65,0,3.02,0.46,3.99,1.33l0.13,0.12c0.89,0.81,2,1.82,3.02,1.82c0.49,0,0.93-0.22,1.18-0.6c0.25-0.38,0.26-0.84,0.05-1.32
			c-1.33-3.01-4.32-4.66-8.42-4.66c-4.13,0-8.54,1.8-8.54,6.86c0,3.51,2.02,6.05,5.41,6.8l4.83,1.08c2.76,0.62,4.05,1.85,4.05,3.87
			c0,2.1-1.9,3.45-4.84,3.45c-2.31,0-4.09-0.79-5.16-2.29c-0.55-0.77-1.65-2.06-2.83-2.06c-0.5,0-0.96,0.23-1.23,0.61
			c-0.28,0.39-0.34,0.87-0.17,1.37c1.26,3.66,4.57,5.68,9.32,5.68c5.34,0,8.66-2.56,8.66-6.68C91.2,165.42,89.13,163.06,84.86,162.1
			z"/>
		<path class="st6" d="M106.27,150.97c-1.01,0-1.83,0.95-1.83,2.12v20.41c0,1.17,0.82,2.12,1.83,2.12s1.83-0.95,1.83-2.12v-20.41
			C108.1,151.92,107.28,150.97,106.27,150.97z"/>
		<path class="st6" d="M138.52,162.29h-5.03c-1.17,0-2.12,0.72-2.12,1.6s0.95,1.6,2.12,1.6h0.87c1.26,0,2.62,0.33,2.62,1.06v0.81
			c0,3.65-3.03,5.32-5.85,5.32s-5.85-1.66-5.85-5.32v-8.12c0-3.65,3.03-5.32,5.85-5.32c2.03,0,3.85,0.81,4.88,2.17
			c0.67,0.89,1.69,2.07,2.77,2.07c0.48,0,0.94-0.23,1.21-0.61c0.28-0.39,0.34-0.88,0.17-1.38c-1.2-3.48-4.57-5.56-9.02-5.56
			c-5.78,0-9.52,3.39-9.52,8.62v8.12c0,5.24,3.74,8.63,9.52,8.63c5.78,0,9.52-3.39,9.52-8.63v-2.95
			C140.64,163.24,139.69,162.29,138.52,162.29z"/>
		<path class="st6" d="M171.05,150.97c-1.01,0-1.83,0.95-1.83,2.12v13.3c0,1.17-0.43,1.35-0.69,1.35c-0.32,0-0.67-0.29-1.02-0.86
			l-8.71-14.01c-0.65-1.04-2.05-1.89-3.12-1.89c-1.01,0-1.83,0.95-1.83,2.12v20.41c0,1.17,0.82,2.12,1.83,2.12s1.83-0.95,1.83-2.12
			v-13.3c0-1.17,0.43-1.35,0.69-1.35c0.32,0,0.67,0.29,1.02,0.86l8.71,14.01c0.65,1.04,2.05,1.89,3.12,1.89
			c1.01,0,1.83-0.95,1.83-2.12v-20.41C172.89,151.92,172.06,150.97,171.05,150.97z"/>
		<path class="st6" d="M192.75,154.28h6.6c1.08,0,1.95-0.74,1.95-1.65s-0.87-1.65-1.95-1.65h-10.43c-1.08,0-1.95,0.95-1.95,2.12
			v20.41c0,1.17,0.87,2.12,1.95,2.12h10.43c1.08,0,1.95-0.74,1.95-1.65c0-0.91-0.87-1.65-1.95-1.65h-6.6
			c-1.33,0-2.41-1.17-2.41-2.62v-2.23c0-1.44,1.08-2.62,2.41-2.62h6.6c1.08,0,1.95-0.74,1.95-1.65s-0.87-1.65-1.95-1.65h-6.6
			c-1.33,0-2.41-1.17-2.41-2.62v-2.02C190.33,155.46,191.42,154.28,192.75,154.28z"/>
		<path class="st6" d="M226.96,163.97c2.23-1.1,3.41-3.2,3.41-6.07c0-4.34-2.79-6.94-7.47-6.94h-7.67c-1.08,0-1.95,0.95-1.95,2.12
			v20.41c0,1.17,0.76,2.12,1.69,2.12s1.69-0.95,1.69-2.12v-6.08c0-1.44,0.98-2.62,2.18-2.62c1.17,0,2.62,0.93,3.32,2.11l4,6.82
			c0.61,1.04,2.01,1.88,3.13,1.88c0.48,0,0.83-0.16,0.97-0.45c0.15-0.29,0.08-0.72-0.19-1.17l-4.11-7c-0.32-0.54-0.41-1.1-0.27-1.62
			C225.84,164.81,226.3,164.3,226.96,163.97z M222.89,161.61h-3.84c-1.33,0-2.41-1.17-2.41-2.62v-2.09c0-1.44,1.08-2.62,2.41-2.62
			h3.84c2.52,0,4.03,1.37,4.03,3.66S225.42,161.61,222.89,161.61z"/>
		<path class="st6" d="M128.17,47.24l-5.27,18.32c-0.6,2.28-0.74,4.07-0.43,5.79c0.66,3.74,3.42,6,7.57,6.2
			c0.2,0.01,0.4,0.01,0.61,0.01c0.58,0,1.19-0.04,1.81-0.12c8.04-0.99,10.93-10.13,11.63-12.89l5.25-18.43
			c0.61-2.29,0.74-4.07,0.43-5.79c-0.8-4.5-4.54-6.78-9.99-6.1C134.33,34.91,130.42,39.29,128.17,47.24z M142.08,37.86
			c2.29,0.11,3.63,1.12,3.96,2.99c0.19,1.07-0.01,2.77-0.51,4.36l-4.22,14.72c-0.16,0.54-0.27,0.9-0.33,1.07
			c-0.1,0.12-0.17,0.36-0.34,1.02l-0.25,0.95c-1.75,6.68-4.62,10.32-8.55,10.81c-1.88,0.23-5.11,0.16-5.65-2.91
			c-0.19-1.07,0.01-2.78,0.52-4.37l5.12-17.84c0.69-2.47,2.78-9.99,8.57-10.71C140.98,37.85,141.55,37.83,142.08,37.86z"/>
		<path class="st6" d="M177.15,57.97c-0.54-0.2-1.14-0.18-1.61,0.04c-0.38,0.18-0.66,0.48-0.8,0.9c-1.04,3.53-3.72,9.57-9.98,10.34
			c-2.09,0.26-3.7,0.05-4.89-0.65l-0.08-0.05c-1.45-0.92-2.59-2.63-2.9-4.37c-0.28-1.59-0.06-3.58,0.68-6.27l3.57-12.39
			c2.37-7.98,5.79-10.02,8.25-10.32c2.61-0.32,3.19,0.85,3.42,2.17c0.26,1.45,0.04,2.57-0.06,2.99l-0.38,1.53l-0.41,1.47
			c-0.21,0.8-0.04,1.55,0.45,2.05c0.45,0.45,1.1,0.62,1.74,0.45c0.88-0.24,1.55-1.06,1.78-2.2l0.56-2.43
			c0.42-1.69,0.52-3.13,0.3-4.38c-0.66-3.71-3.8-5.77-8-5.25c-7.74,0.95-10.88,11.37-11.22,12.56l-3.73,12.75
			c-0.91,3.2-1.16,5.86-0.75,8.13c0.63,3.55,2.74,6.15,5.94,7.32l0.55,0.2c0.17,0.06,0.28,0.1,0.38,0.1c0,0,0,0,0.01,0l0.06,0.01
			c0.18,0.04,0.61,0.14,1.11,0.21c0.41,0.06,0.84,0.1,1.28,0.12c0.24,0.01,0.49,0.02,0.74,0.02c0.75,0,1.53-0.05,2.35-0.15
			c7.47-0.92,11.74-8.21,12.78-12.86C178.53,59.13,178.06,58.3,177.15,57.97z"/>
		<path class="st6" d="M242.02,51.52L242,51.48c-0.07-0.15-0.2-0.44-0.45-0.71c-0.24-0.25-0.54-0.44-0.87-0.53
			c-0.47-0.13-0.96-0.07-1.38,0.17c-0.41,0.23-0.69,0.61-0.8,1.05c-0.45,1.5-3.03,9.04-10.35,9.95l-0.44,0.05
			c-2.92,0.35-4.46-0.52-4.86-2.75c-0.14-0.77-0.03-2.36,0.5-4.2l0.1-0.37c0.65-2.24,1.26-4.58,1.98-7.4l0.13-0.49
			c2.35-9.15,5.89-22.99,12.38-30.67c0.33-0.38,0.46-0.87,0.39-1.38c-0.07-0.51-0.35-0.96-0.78-1.28c-0.83-0.61-2.02-0.5-2.65,0.25
			c-7,8.3-10.67,22.61-13.09,32.07l-0.15,0.58c-0.74,2.88-1.44,5.61-2.2,8.12c-0.03,0.1-0.05,0.2-0.06,0.3
			c-0.01,0.08-0.17,0.73-0.46,1.41c-1.17,2.78-3.99,7.54-9.74,8.25c-2.16,0.27-3.67,0.1-4.75-0.51c-0.7-0.45-1.13-1.19-1.32-2.25
			c-0.13-0.71-0.07-2.24,0.5-4.21l7.62-27.66c0.39-1.35-0.34-2.28-1.17-2.58c-0.49-0.17-1.04-0.13-1.5,0.1
			c-0.36,0.18-0.83,0.55-1.08,1.34l-0.49,1.67c-0.06,0.21-0.14,0.29-0.18,0.3c-0.02,0.01-0.18-0.02-0.42-0.25
			c-1.72-1.67-4.34-2.42-7.17-2.07c-5.26,0.65-9.04,4.87-11.22,12.56l-5.1,17.57c-0.57,2.15-0.7,4.01-0.4,5.7
			c0.64,3.63,3.32,5.82,7.33,6.01c0.19,0.01,0.39,0.01,0.58,0.01c0.56,0,1.15-0.04,1.75-0.11c3.07-0.38,5.65-2.15,7.67-5.26
			c0.13-0.21,0.23-0.25,0.25-0.25c0.02,0,0.15,0.07,0.31,0.34c0.43,0.76,1,1.39,1.67,1.88c1.7,1.28,4.26,1.69,7.84,1.25
			c4.56-0.56,7.71-3.41,9.55-5.7c0.12-0.14,0.24-0.23,0.33-0.23c0,0,0,0,0.01,0c0.11,0.01,0.25,0.15,0.38,0.37
			c1.49,2.51,4.3,3.59,8.13,3.12l0.18-0.03c0.13-0.01,0.25-0.03,0.38-0.04c6.44-0.79,10.7-6.07,12.53-10.75
			c0.29-0.73,0.54-1.58,0.62-1.87C242.17,51.85,242.13,51.66,242.02,51.52z M199.89,55.93c-0.78,2.79-3.14,9.35-8.3,9.99
			c-1.8,0.22-4.89,0.15-5.42-2.78v0c-0.14-0.78-0.09-2.34,0.5-4.2l4.94-17.21c0.66-2.38,2.67-9.62,8.24-10.31
			c0.42-0.05,0.83-0.08,1.23-0.08c0.14,0,0.27,0,0.4,0.01c2.22,0.11,3.46,1.04,3.79,2.85c0.15,0.84,0,2.16-0.39,3.55L199.89,55.93z"
			/>
		<path class="st6" d="M73,68.9c1.3,0.69,2.89,1.04,4.71,1.04c0.18,0,0.36,0,0.55-0.01c1.03-0.04,2.13-0.18,3.28-0.44
			c6.94-1.51,11.92-7.06,13.6-11.57c0.29-0.76,0.16-1.5-0.36-1.96v0c-0.4-0.36-0.99-0.5-1.56-0.37c-0.72,0.17-1.31,0.72-1.6,1.5
			c-1.48,3.63-5.49,8.02-10.78,9.11c-2.17,0.45-3.88,0.39-5.1-0.16c-1.08-0.49-1.77-1.41-2.04-2.73c-0.24-1.15-0.03-2.89,0.58-4.81
			l0.96-4.12c1.46,0.22,3.22,0.16,4.91-0.19c5.76-1.18,9.1-4.82,10.83-11.8c0.34-1.26,0.4-2.43,0.16-3.57
			c-0.29-1.4-1.19-2.55-2.52-3.23c-1.35-0.69-3.03-0.85-4.87-0.48c-7,1.43-9.8,9.98-10.1,10.95l-3.35,11.77
			c-0.81,2.62-1.02,4.77-0.65,6.55C70.08,66.4,71.23,67.96,73,68.9z M77.48,47.05c2.02-6.27,4.91-8.09,6.98-8.52
			c1.49-0.31,2.36,0.07,2.59,1.14c0.15,0.72,0.1,1.61-0.15,2.65c-1.27,5.07-3.46,7.49-7.58,8.33c-1.08,0.22-2.05,0.26-2.96,0.1
			L77.48,47.05z"/>
		<path class="st6" d="M58.34,50.96l-5.11,19.16l0,0.02c-0.1,0.24-0.16,0.49-0.16,0.74c-0.01,0.52,0.19,1.01,0.55,1.37
			c0.38,0.38,0.89,0.6,1.45,0.6c0,0,0.01,0,0.01,0c1,0,1.86-0.7,2.03-1.65l5.39-20.01l0.16-0.38l0.14-0.6
			c0.46-1.9,0.48-3.27,0.08-4.58l0,0c-0.5-1.52-1.58-2.55-3.14-2.99c-0.68-0.19-1.44-0.27-2.25-0.23c-0.14,0.01-0.28,0.02-0.42,0.03
			c-1.24,0.11-2.59,0.48-4.02,1.08c-0.9,0.39-1.97,0.96-3.04,1.62c0.79-2.75,1.66-5.41,2.5-7.99c1.14-3.48,2.21-6.77,2.78-9.37
			c0.12-0.54,0.02-1.08-0.28-1.53c-0.29-0.44-0.72-0.74-1.23-0.84c-1.04-0.21-2.08,0.48-2.37,1.57C47.67,41,38.54,69.74,37.51,72.98
			l-0.02,0.06c-0.17,0.52-0.12,1.08,0.13,1.56c0.24,0.46,0.65,0.8,1.15,0.95c0.19,0.06,0.38,0.09,0.57,0.09c0,0,0.01,0,0.01,0
			c0.88,0,1.65-0.58,1.92-1.43l0.01-0.03c0.56-1.76,3.52-11.16,7.07-23.32c1.74-1.71,3.73-3.1,5.62-3.94
			c0.8-0.33,1.57-0.54,2.25-0.61c0.07-0.01,0.14-0.01,0.2-0.01c0.38-0.02,0.73,0.01,1.04,0.1c0.61,0.18,0.99,0.54,1.16,1.1
			c0.12,0.39,0.2,1.45-0.25,2.98L58.34,50.96z"/>
		<path class="st6" d="M154.92,90.5c0.9-0.52,1.21-1.66,0.69-2.56c-0.52-0.9-1.66-1.21-2.56-0.69c-9.22,5.3-21.61,6.13-34.01,2.25
			l-0.11-0.03c-3.37-0.83-7.25-2.46-11.36-4.19c-2.35-0.99-4.76-2.01-7.19-2.92c8.27-10.54,10.92-24.77,13.31-37.69
			c3.65-19.62,6.79-36.57,26.34-39.22c1.03-0.14,1.75-1.08,1.61-2.11c-0.14-1.02-1.07-1.75-2.11-1.61
			C117.3,4.76,113.6,24.7,110.02,43.99c-2.5,13.46-5.07,27.29-13.38,37.07c-7.77-2.46-15.47-3.16-21.53,2.2
			c-1.39,1.23-2.1,3.17-2.03,5.61c0.06,2.15,1.05,3.86,2.79,4.79c3.97,2.13,11.05-0.21,14.82-2.56c2.69-1.67,5.03-3.6,7.08-5.71
			c2.76,0.99,5.58,2.18,8.37,3.35c4.23,1.78,8.22,3.46,11.86,4.37c4,1.24,9.89,2.6,16.52,2.6C140.95,95.71,148.11,94.42,154.92,90.5
			z M88.7,87.92c-3.34,2.08-8.9,3.6-11.06,2.44c-0.39-0.21-0.79-0.56-0.82-1.59c-0.02-0.74,0.06-2.07,0.77-2.7
			c2.53-2.24,5.53-3.11,8.81-3.11c2.32,0,4.79,0.44,7.33,1.14C92.21,85.49,90.54,86.77,88.7,87.92z"/>
		<path class="st6" d="M21.81,74.97c0.08-0.14,0.17-0.31,0.24-0.52l0.4-1.25c0.04-0.11,0.08-0.21,0.11-0.35l15.73-52.81
			c0.14-0.01,0.27-0.01,0.41-0.02c8.24-0.38,17.58-0.82,28.1-5.38c1.01-0.44,1.48-1.62,1.04-2.63c-0.44-1.01-1.62-1.48-2.63-1.04
			c-9.84,4.27-18.41,4.67-26.69,5.05C25.92,16.61,14.03,17.16,3.14,33c-0.63,0.91-0.4,2.16,0.51,2.78c0.35,0.24,0.74,0.35,1.13,0.35
			c0.64,0,1.26-0.3,1.65-0.87c8.58-12.47,17.28-14.34,27.79-15.01L18.67,72.53C16.13,80.37,9.82,85.94,2.94,86.4
			c-1.16,0.18-2.06,1.15-2.13,2.32c-0.04,0.56,0.13,1.08,0.47,1.45c0.29,0.31,0.67,0.49,1.11,0.51c0.03,0,0.06,0,0.1,0
			c0.04,0,0.08,0,0.13,0c0.43-0.03,0.86-0.08,1.29-0.14C11.71,89.41,18.59,83.42,21.81,74.97z"/>
	</g>
</g>
<g id="GUIDELINES" class="st8">
</g>
<g id="Layer_2">
</g>
<g id="Layer_3">
</g>
</svg>
