<?xml version="1.0" encoding="utf-8"?>
<!-- Generator: Adobe Illustrator 24.1.1, SVG Export Plug-In . SVG Version: 6.00 Build 0)  -->
<svg version="1.1" xmlns="http://www.w3.org/2000/svg" xmlns:xlink="http://www.w3.org/1999/xlink" x="0px" y="0px"
	 viewBox="0 0 232 188.26" style="enable-background:new 0 0 232 188.26;" xml:space="preserve">
<style type="text/css">
	.st0{stroke:#000000;stroke-width:0.2;stroke-miterlimit:10;}
	.st1{fill:none;stroke:#000000;stroke-width:1.8;stroke-miterlimit:10;}
	.st2{fill:none;stroke:#000000;stroke-width:2.0797;stroke-miterlimit:10;}
	.st3{fill:none;stroke:#000000;stroke-width:1.6;stroke-miterlimit:10;}
	.st4{fill:#D0C9BA;}
</style>
<g id="Layer_1">
</g>
<g id="Layer_4">
</g>
<g id="Layer_2">
	<g>
		<path class="st4" d="M48.09,158.43c-0.62-0.02-1.23-0.04-1.85-0.07c0,5.66,0,11.32,0,16.98c0.62,0.05,1.23,0.11,1.85,0.16
			c2.43,0.2,3.29-0.57,3.29-2.93c0-3.61,0-7.22,0-10.83C51.38,159.37,50.52,158.51,48.09,158.43z M50.49,172.51
			c0,1.82-0.47,2.23-2.4,2.07c-0.32-0.03-0.64-0.05-0.96-0.08c0-5.06,0-10.12,0-15.18c0.32,0.01,0.64,0.02,0.96,0.04
			c1.93,0.07,2.4,0.53,2.4,2.35C50.49,165.3,50.49,168.9,50.49,172.51z"/>
		<path class="st4" d="M48.58,151.31c-2.62-0.04-5.23-0.08-7.83-0.13c-0.44-0.01-0.8,0.34-0.81,0.78c0,9.59,0,19.17,0,28.76
			c0,0.44,0.36,0.84,0.81,0.89c2.61,0.32,5.22,0.61,7.83,0.88c6.07,0.63,9.16-2.56,9.16-9.29c0-3.88,0-7.75,0-11.63
			C57.74,154.83,54.65,151.39,48.58,151.31z M56.85,173.14c0,6.26-2.64,8.98-8.27,8.42c-2.59-0.26-5.17-0.54-7.75-0.84
			c0-9.54,0-19.09,0-28.63c2.58,0.05,5.16,0.11,7.75,0.15c5.63,0.09,8.27,3.03,8.27,9.3C56.85,165.41,56.85,169.28,56.85,173.14z"/>
		<path class="st4" d="M81.11,177.59c-2.77-0.1-5.53-0.22-8.29-0.34c0-2.08,0-4.16,0-6.25c1.92,0.07,3.84,0.14,5.76,0.2
			c0.41,0.01,0.75-0.33,0.75-0.77c0-1.87,0-3.73,0-5.6c0-0.44-0.34-0.8-0.75-0.81c-1.92-0.04-3.84-0.09-5.76-0.14
			c0-1.72,0-3.44,0-5.16c2.57,0.05,5.14,0.09,7.72,0.13c0.42,0.01,0.75-0.35,0.75-0.79c0-1.87,0-3.74,0-5.61
			c0-0.44-0.34-0.8-0.75-0.8c-4.85-0.03-9.69-0.07-14.52-0.12c-0.41,0-0.75,0.34-0.75,0.77c0,10.27,0,20.54,0,30.82
			c0,0.43,0.34,0.8,0.75,0.83c5.02,0.34,10.05,0.62,15.09,0.84c0.41,0.02,0.75-0.32,0.75-0.76c0-1.87,0-3.74,0-5.61
			C81.87,177.98,81.53,177.61,81.11,177.59z M80.97,183.8c-4.94-0.22-9.88-0.48-14.8-0.81c0-10.17,0-20.33,0-30.5
			c4.73,0.06,9.47,0.1,14.23,0.14c0,1.74,0,3.49,0,5.23c-2.83-0.04-5.65-0.09-8.47-0.14c0,2.37,0,4.73,0,7.1
			c2.17,0.06,4.34,0.12,6.51,0.17c0,1.74,0,3.48,0,5.22c-2.17-0.07-4.35-0.14-6.51-0.22c0,2.73,0,5.45,0,8.18
			c3.01,0.15,6.02,0.28,9.04,0.39C80.96,180.31,80.96,182.06,80.97,183.8z"/>
		<path class="st4" d="M168.1,152.82c0.04,3.63,0.07,7.27,0.11,10.9c-0.02,0-0.03,0.01-0.05,0.01c-0.05,0.01-0.11-0.02-0.13-0.08
			c-1.27-3.72-2.54-7.46-3.81-11.2c-0.15-0.41-0.52-0.69-0.93-0.69c-2.06,0.01-4.11,0.01-6.17,0.02c0,11.28,0,22.55,0,33.83
			c2.38-0.04,4.75-0.09,7.13-0.15c0-3.93,0-7.85,0-11.78c0.05-0.01,0.1-0.02,0.15-0.03c1.33,3.68,2.67,7.35,4,11
			c0.14,0.42,0.52,0.69,0.94,0.68c1.96-0.06,3.92-0.12,5.88-0.19c0-11.14,0-22.29,0-33.43c-2.04,0.01-4.08,0.02-6.12,0.03
			C168.55,151.75,168.1,152.22,168.1,152.82z M174.31,184.18c-1.66,0.05-3.31,0.11-4.97,0.15c-0.05,0-0.08-0.02-0.09-0.06
			c-1.35-3.7-2.7-7.42-4.06-11.15c-0.11-0.31-0.39-0.51-0.69-0.5c-0.05,0-0.09,0.01-0.14,0.02c-0.14,0.03-0.28,0.06-0.42,0.1
			c-0.35,0.08-0.6,0.42-0.6,0.81c0,3.65,0,7.29,0,10.94c-1.77,0.04-3.54,0.08-5.32,0.11c0-10.6,0-21.21,0-31.81
			c1.76-0.01,3.51-0.01,5.27-0.02c0.04,0,0.08,0.03,0.09,0.05c1.27,3.74,2.54,7.48,3.81,11.2c0.17,0.51,0.65,0.8,1.14,0.69
			c0.05-0.01,0.1-0.02,0.15-0.03c0.37-0.08,0.64-0.44,0.64-0.86c-0.04-3.67-0.08-7.33-0.11-11c0-0.03,0.04-0.07,0.09-0.07
			c1.74-0.01,3.48-0.02,5.21-0.03C174.31,163.2,174.31,173.69,174.31,184.18z"/>
		<path class="st4" d="M198.6,176.93c-2.75,0.15-5.51,0.28-8.27,0.41c0-2.09,0-4.18,0-6.26c1.92-0.07,3.84-0.14,5.76-0.22
			c0.41-0.02,0.75-0.38,0.75-0.81c0-1.84,0-3.67,0-5.51c0-0.43-0.34-0.77-0.75-0.76c-1.92,0.06-3.83,0.11-5.76,0.16
			c0-1.72,0-3.45,0-5.17c2.57-0.05,5.14-0.1,7.7-0.15c0.41-0.01,0.75-0.37,0.75-0.8c0-1.83,0-3.66,0-5.49
			c0-0.43-0.34-0.78-0.75-0.77c-4.83,0.05-9.67,0.09-14.52,0.12c-0.42,0-0.75,0.36-0.75,0.8c0,10.53,0,21.06,0,31.59
			c0,0.44,0.34,0.78,0.75,0.76c5.04-0.23,10.08-0.5,15.09-0.83c0.41-0.03,0.75-0.4,0.75-0.83c0-1.83,0-3.66,0-5.49
			C199.35,177.24,199.01,176.91,198.6,176.93z M198.45,183.03c-4.92,0.32-9.86,0.58-14.8,0.8c0-10.39,0-20.79,0-31.18
			c4.75-0.04,9.5-0.08,14.23-0.14c0,1.71,0,3.42,0,5.13c-2.82,0.06-5.64,0.11-8.46,0.15c0,2.38,0,4.76,0,7.13
			c2.17-0.06,4.34-0.12,6.51-0.18c0,1.72,0,3.43,0,5.15c-2.17,0.08-4.34,0.16-6.51,0.23c0,2.74,0,5.48,0,8.22
			c3.01-0.13,6.02-0.28,9.03-0.45C198.45,179.61,198.45,181.32,198.45,183.03z"/>
		<path class="st4" d="M98.59,150.64c-5.8,0.17-8.98,3.42-8.98,9.14c0,3.12,1.24,5.99,3.69,8.55c0.75,0.78,1.55,1.52,2.33,2.23
			c0.83,0.76,1.7,1.55,2.49,2.39c0.01,0.01,0.02,0.02,0.04,0.04c2.01,1.72,1.79,3.34,1.6,3.96c-0.34,1.1-1.32,1.85-2.41,1.82
			c-0.73-0.02-1.44-0.4-1.99-1.07c-0.54-0.66-0.71-1.78-0.82-2.61c-0.08-0.52-0.43-1.06-0.98-1.07c-0.03,0-0.03,0-1.2,0.14
			c-1.29,0.15-3.21,0.37-3.25,0.38c-0.28,0.03-0.53,0.18-0.69,0.42c-0.02,0.03-0.04,0.06-0.06,0.09c-0.01,0.03-0.01,0.07-0.02,0.1
			c-0.03,0.17-0.05,0.5,0.06,1.7c0.01,0.14,0.02,0.25,0.03,0.33c0.06,0.85,0.78,8.41,8.95,8.8c0.06,0,0.11,0,0.17,0.01
			c5.46,0.16,9.75-4.17,9.75-9.79c0-5.34-3.47-8.48-6.52-11.24c-2.04-1.85-3.81-3.44-3.81-5.14c-0.02-0.64,0.15-1.19,0.5-1.58
			c0.37-0.42,0.92-0.65,1.54-0.64c1.05,0.01,2.05,0.67,2.59,1.69c0.04,0.08,0.09,0.21,0.15,0.36c0.48,1.14,0.77,1.73,0.99,1.97
			c0.05,0.05,0.09,0.11,0.14,0.16c0.07,0,0.13,0,0.2-0.01c0.93-0.02,1.95-0.42,3.06-0.85c0.45-0.17,0.91-0.35,1.37-0.51
			c0.6-0.2,0.51-0.87,0.45-1.28C107.95,159.06,106.28,150.42,98.59,150.64z M105.81,159.99c-0.92,0.36-1.79,0.69-2.53,0.77
			c-0.12-0.21-0.33-0.63-0.71-1.52c-0.07-0.16-0.12-0.29-0.18-0.41c-0.71-1.36-2.01-2.21-3.38-2.22c-0.87-0.01-1.65,0.33-2.19,0.95
			c-0.52,0.59-0.78,1.39-0.75,2.29c0,2.16,1.92,3.89,4.15,5.9c2.89,2.62,6.18,5.59,6.18,10.45c0,5.06-3.89,8.95-8.84,8.81
			c-0.05,0-0.11,0-0.16-0.01c-7.37-0.35-8.01-7.09-8.06-7.85c0-0.08-0.01-0.21-0.03-0.35c-0.06-0.72-0.08-1.08-0.08-1.25
			c0,0,0.01,0,0.01,0c0,0,0,0,0,0c0.15-0.02,0.73-0.08,3.26-0.37c0.36-0.04,0.72-0.08,1.08-0.13c0.03,0.03,0.07,0.12,0.09,0.21
			c0.14,0.95,0.33,2.24,1.05,3.13c0.72,0.88,1.67,1.38,2.65,1.41c1.46,0.03,2.81-0.99,3.26-2.49c0.25-0.82,0.56-2.94-1.89-5.06
			c-0.81-0.86-1.68-1.66-2.52-2.42c-0.77-0.7-1.56-1.42-2.29-2.18c-2.26-2.36-3.4-4.99-3.4-7.83c0-5.19,2.8-8,8.11-8.16
			c6.95-0.23,8.44,7.6,8.45,7.66c0.01,0.09,0.02,0.16,0.02,0.21C106.66,159.66,106.23,159.82,105.81,159.99z"/>
		<path class="st4" d="M121.42,150.9c-1.74,0-3.47,0-5.21-0.01c-0.67,0-1.22,0.61-1.22,1.35c0,10.78,0,21.57,0,32.35
			c0,0.75,0.55,1.36,1.22,1.37c1.74,0.02,3.47,0.04,5.21,0.05c0.67,0.01,1.22-0.6,1.22-1.35c0-10.8,0-21.61,0-32.41
			C122.64,151.51,122.09,150.9,121.42,150.9z M121.71,184.66c0,0.18-0.13,0.33-0.3,0.33c-1.74-0.01-3.47-0.03-5.21-0.05
			c-0.16,0-0.3-0.15-0.3-0.33c0-10.79,0-21.58,0-32.36c0-0.18,0.13-0.33,0.3-0.33c1.74,0,3.47,0.01,5.21,0.01
			c0.16,0,0.3,0.15,0.3,0.33C121.72,163.06,121.72,173.86,121.71,184.66z"/>
		<path class="st4" d="M149.77,168.67c-2.46,0.02-4.93,0.03-7.4,0.04c-0.32,0-0.58,0.28-0.58,0.62c0,1.37,0,2.74,0,4.11
			c0,0.34,0.26,0.62,0.58,0.62c0.61,0,1.23-0.01,1.84-0.01c0.09,0,0.16,0.08,0.16,0.18c0,0.1,0,0.69-0.1,2.32
			c-0.08,1.27-1.14,2.13-2.64,2.14c-3.13,0.02-3.8-1.81-3.85-4.54c-0.06-3.66-0.01-11.6,0-13.2c0-1.34,0.96-2.28,2.33-2.29
			c0.87,0,1.53,0.31,1.98,0.92c0.96,1.3,0.62,3.6,0.59,3.86c-0.01,0.04-0.01,0.08-0.02,0.12c0.01,0.04,0.02,0.08,0.03,0.11
			c0.07,0.27,0.3,0.45,0.55,0.45c1.89-0.01,3.78-0.01,5.67-0.02c0.32,0,0.57-0.28,0.57-0.62c0-0.91,0-1.82,0-2.72
			c0-6.6-2.71-9.28-9.37-9.28c-0.13,0-0.27,0-0.41,0.01c-5.42,0.13-8.78,3.73-8.78,9.42c0,0.5-0.1,12.21,0,16.11
			c0.17,6.6,3.15,9.43,9.98,9.39c2.98-0.02,5.82-0.23,7.81-2.54c0.85-0.99,1.43-2.67,1.56-4.49c0.31-4.27,0.07-9.5,0.04-10.07
			C150.35,168.95,150.09,168.67,149.77,168.67z M149.4,179.29c-0.11,1.59-0.61,3.04-1.31,3.86c-1.73,2.02-4.37,2.21-7.15,2.23
			c-7.78,0.04-8.96-4.04-9.07-8.41c-0.1-3.87-0.01-15.57,0-16.07c0-5.08,3.02-8.3,7.89-8.41c0.13,0,0.26-0.01,0.39-0.01
			c6.17-0.01,8.46,2.23,8.46,8.27c0,0.78,0,1.56,0,2.33c-1.65,0.01-3.3,0.01-4.95,0.02c0.09-0.96,0.12-2.87-0.84-4.17
			c-0.63-0.86-1.53-1.29-2.69-1.29c-1.88,0-3.24,1.39-3.24,3.33c-0.01,1.56-0.06,9.51,0,13.19c0.04,2.38,0.58,5.55,4.75,5.53
			c2-0.01,3.43-1.25,3.54-3.08c0.11-1.66,0.11-2.29,0.11-2.4c0-0.65-0.48-1.18-1.07-1.17c-0.5,0-1.01,0.01-1.51,0.01
			c0-1.11,0-2.22,0-3.33c2.25-0.01,4.5-0.02,6.75-0.04C149.51,171.03,149.67,175.54,149.4,179.29z"/>
		<path class="st4" d="M214.38,156.76c-0.5,0-0.99,0-1.49,0c0,2.98-0.01,5.96-0.02,8.93c0.5-0.02,1-0.05,1.49-0.08
			c2.62-0.14,3.41-1.15,3.41-4.3C217.78,158.44,217.21,156.68,214.38,156.76z M214.37,164.69c-0.2,0.01-0.4,0.02-0.6,0.03
			c0-2.34,0.01-4.68,0.01-7.02c0.2,0,0.39,0,0.59,0c1.74-0.05,2.52,0.46,2.52,3.67C216.89,164.29,216.24,164.59,214.37,164.69z"/>
		<path class="st4" d="M225.14,180.51c-1.36-3.91-2.71-7.88-4.07-11.9c0,0,0,0,0,0c1.48-1.11,3.24-3.37,3.24-7.86
			c0-6.53-2.98-9.39-9.69-9.31c-2.47,0.04-4.95,0.07-7.43,0.1c-0.47,0.01-0.85,0.4-0.85,0.88c0,10.07,0,20.15,0,30.22
			c0,0.48,0.38,0.84,0.85,0.8c1.94-0.16,3.88-0.33,5.81-0.51c0.46-0.04,0.85-0.46,0.85-0.94c-0.06-1.37-0.04-8.42,0.02-9.98
			c0.04-0.01,0.1-0.02,0.19-0.02c0.4-0.03,0.49,0.03,0.49,0.04c0.11,0.17,0.64,1.54,3.03,9.71c0.01,0.04,0.03,0.09,0.04,0.13
			c0.11,0.34,0.44,0.56,0.81,0.52c1.97-0.21,3.94-0.44,5.91-0.68c0.27-0.03,0.52-0.19,0.68-0.43
			C225.17,181.03,225.22,180.75,225.14,180.51z M218.46,181.45c-0.01-0.02-0.02-0.05-0.02-0.07c-2.69-9.19-3.02-9.77-3.13-9.92
			c-0.22-0.33-0.57-0.45-1.24-0.41c0,0-0.01,0-0.01,0c-0.89,0.06-1.05,0.57-1.06,0.87c-0.07,1.36-0.08,8.43-0.03,10.07
			c-1.9,0.18-3.81,0.34-5.72,0.49c0-10,0-20,0-30.01c2.47-0.04,4.93-0.08,7.38-0.12c6.26-0.09,8.8,2.34,8.8,8.43
			c0,4.11-1.54,6.12-2.84,7.09c-0.19,0.14-0.38,0.29-0.58,0.43c1.42,4.23,2.84,8.4,4.26,12.49
			C222.33,181.03,220.39,181.24,218.46,181.45z"/>
		<path class="st4" d="M137.27,111.42c-0.37,0-0.74,0-1.11,0c0,3.05,0,6.09,0,9.14c0.37-0.01,0.74-0.02,1.11-0.02
			c2.7,0.01,3.8-1.4,3.8-4.87C141.08,112.46,140.15,111.43,137.27,111.42z M137.26,119.52c-0.06,0-0.13,0-0.19,0
			c0-2.37,0-4.73,0-7.1c0.07,0,0.13,0,0.2,0c2.38,0.01,2.9,0.58,2.9,3.23C140.17,118.59,139.46,119.53,137.26,119.52z"/>
		<path class="st4" d="M84.66,111.58c-0.5,0-1.01,0.01-1.51,0.01c0,3.14-0.01,6.28-0.02,9.43c0.5-0.01,1.01-0.03,1.51-0.04
			c2.65-0.06,3.46-1.11,3.46-4.5C88.11,113.39,87.53,111.49,84.66,111.58z M84.65,119.99c-0.2,0.01-0.41,0.01-0.61,0.02
			c0-2.48,0.01-4.96,0.01-7.43c0.2,0,0.4,0,0.6,0c1.77-0.06,2.56,0.5,2.56,3.93C87.2,119.65,86.54,119.95,84.65,119.99z"/>
		<path class="st4" d="M68.95,122.83c-2.44,0.09-4.88,0.18-7.31,0.29c-0.31,0.01-0.57,0.29-0.57,0.61c0,1.29,0,2.59,0,3.88
			c0,0.32,0.25,0.58,0.57,0.57c0.61-0.02,1.21-0.04,1.82-0.06c0.09,0,0.16,0.07,0.16,0.17c0,0.1,0,0-0.1,1.55
			c-0.08,1.21-1.13,2.05-2.6,2.08c-3.08,0.07-3.74-1.61-3.79-4.17c-0.07-3.71,0-11.63,0-11.71c0-1.26,0.94-2.2,2.29-2.29
			c0.85-0.06,1.51,0.2,1.95,0.75c0.95,1.17,0.62,3.37,0.58,3.62c-0.01,0.04-0.01,0.08-0.02,0.11c0.01,0.04,0.02,0.07,0.03,0.11
			c0.07,0.24,0.3,0.41,0.55,0.39c1.87-0.09,3.73-0.18,5.6-0.27c0.31-0.01,0.57-0.29,0.57-0.62c0-0.87,0-1.74,0-2.61
			c0-6.33-2.69-8.78-9.25-8.26c-0.13,0.01-0.26,0.02-0.4,0.04c-5.33,0.56-8.63,4.23-8.63,9.44c-0.02,1.89-0.09,11.5,0,14.84
			c0.17,6.06,3.09,8.62,9.82,8.56c2.94-0.03,5.75-0.23,7.71-2.45c0.84-0.95,1.42-2.56,1.55-4.31c0.3-4.11,0.07-9.13,0.04-9.68
			C69.52,123.08,69.26,122.82,68.95,122.83z M68.58,133.03c-0.11,1.53-0.6,2.92-1.3,3.71c-1.72,1.94-4.32,2.12-7.06,2.15
			c-7.67,0.08-8.81-3.63-8.93-7.67c-0.09-3.33-0.02-12.94,0-14.84c0-4.67,2.96-7.94,7.76-8.43c0.13-0.01,0.26-0.02,0.38-0.03
			c6.08-0.47,8.35,1.56,8.35,7.35c0,0.75,0,1.49,0,2.24c-1.63,0.08-3.26,0.15-4.89,0.24c0.09-0.91,0.12-2.73-0.83-3.9
			c-0.62-0.77-1.51-1.13-2.65-1.05c-1.85,0.13-3.19,1.52-3.19,3.3c0,0.08-0.07,8,0,11.71c0.04,2.22,0.57,5.16,4.68,5.07
			c1.98-0.04,3.38-1.24,3.5-2.99c0.11-1.59,0.11-1.53,0.1-1.63c0-0.62-0.47-1.11-1.06-1.09c-0.5,0.02-0.99,0.03-1.49,0.05
			c0-1.05,0-2.1,0-3.15c2.22-0.09,4.44-0.17,6.67-0.25C68.69,125.1,68.84,129.43,68.58,133.03z"/>
		<path class="st4" d="M116.33,105.85c-0.07-0.41-0.4-0.7-0.79-0.69c-2.77,0.03-5.53,0.07-8.29,0.12c-0.38,0.01-0.72,0.31-0.79,0.72
			c-1.88,10.73-3.75,21.44-5.62,32.11c-0.04,0.25,0.02,0.51,0.17,0.71c0.15,0.19,0.38,0.31,0.62,0.31c2.21-0.01,4.42-0.01,6.63-0.02
			c0.04-0.41,0.07-0.82,0.11-1.22c0.18-2,0.4-4.02,0.58-5.15c0.02-0.13,0.12-0.22,0.24-0.22c0.45-0.02,0.98-0.03,1.39-0.03
			c0.67,0,2.54,0,2.95,0.02c0.12,0,0.22,0.09,0.24,0.22c0.1,0.58,0.35,2.24,0.66,5.17c0.04,0.4,0.08,0.8,0.13,1.2
			c2.21,0,4.42-0.01,6.62-0.01c0.24,0,0.47-0.11,0.62-0.31c0.15-0.2,0.22-0.46,0.17-0.71C120.09,127.3,118.21,116.56,116.33,105.85z
			 M115.36,138.07c-0.01-0.1-0.02-0.21-0.03-0.31c-0.31-2.96-0.57-4.65-0.67-5.24c-0.1-0.6-0.55-1.03-1.1-1.04
			c-0.42-0.01-2.28-0.02-2.98-0.02c-0.43,0-0.97,0.01-1.43,0.03c-0.55,0.03-1,0.46-1.09,1.06c-0.18,1.15-0.42,3.2-0.59,5.22
			c-0.01,0.11-0.02,0.21-0.03,0.32c-1.89,0.01-3.79,0.01-5.68,0.02c1.86-10.58,3.71-21.19,5.57-31.83c2.71-0.05,5.42-0.09,8.13-0.12
			c1.86,10.61,3.72,21.25,5.58,31.9C119.15,138.07,117.25,138.07,115.36,138.07z"/>
		<path class="st4" d="M137.52,105.07c-2.54-0.01-5.09-0.01-7.63-0.01c-0.53,0-0.96,0.46-0.96,1.03c0,10.65,0,21.3,0,31.95
			c0,0.57,0.43,1.03,0.96,1.03c1.91,0,3.82,0,5.73,0c0.53,0,0.96-0.46,0.96-1.03c-0.01-3.61-0.01-7.23-0.02-10.84
			c0.32,0,0.65,0,0.97,0c7.15,0.01,10.47-3.63,10.47-11.5C147.99,108.3,144.86,105.1,137.52,105.07z M137.52,126.19
			c-0.63,0-1.25,0-1.88,0c0.01,3.95,0.02,7.9,0.03,11.85c0,0-0.02,0.02-0.05,0.02c-1.91,0-3.82,0-5.73,0
			c-0.03,0-0.05-0.02-0.05-0.02c0,0,0,0,0,0c0-10.65,0-21.3,0-31.95c0,0,0.02-0.02,0.05-0.02c2.54,0,5.09,0,7.63,0.01
			c6.88,0.03,9.56,2.75,9.56,9.62C147.08,123.07,144.22,126.2,137.52,126.19z"/>
		<path class="st4" d="M172.88,106.29c-1.93-0.06-3.85-0.12-5.78-0.17c-0.5-0.01-0.91,0.41-0.91,0.95c0,3.87,0,7.73,0,11.6
			c-1.53-0.03-3.06-0.05-4.59-0.07c0-3.88,0-7.76,0-11.63c0-0.54-0.41-0.99-0.91-1c-1.93-0.04-3.86-0.07-5.8-0.1
			c-0.5-0.01-0.91,0.43-0.91,0.97c0,10.42,0,20.85,0,31.27c0,0.54,0.41,0.98,0.91,0.98c1.93,0,3.86,0.01,5.8,0.02
			c0.5,0,0.91-0.44,0.91-0.98c0-3.85,0-7.7,0-11.55c1.53,0.02,3.06,0.03,4.59,0.05c0,3.84,0,7.68,0,11.52
			c0,0.54,0.41,0.98,0.91,0.98c1.93,0.01,3.86,0.02,5.78,0.02c0.5,0,0.91-0.43,0.91-0.97c0-10.3,0-20.6,0-30.9
			C173.79,106.75,173.39,106.3,172.88,106.29z M172.88,138.16c-1.93-0.01-3.85-0.02-5.78-0.03c0,0.01-0.01,0.02-0.01,0.02
			c0-4.17,0-8.34,0-12.51c-2.13-0.03-4.27-0.05-6.41-0.07c0,4.18,0,8.36-0.01,12.53c-1.93,0-3.87,0-5.8,0.01
			c0-10.41,0.01-20.82,0.01-31.23c1.94,0.02,3.87,0.05,5.8,0.08c0,4.21,0,8.43,0,12.64c2.14,0.03,4.27,0.06,6.41,0.1
			c0-4.19,0.01-8.38,0.01-12.57c1.93,0.04,3.86,0.09,5.79,0.14C172.89,117.56,172.88,127.86,172.88,138.16z"/>
		<path class="st4" d="M189.19,106.15c-1.9-0.1-3.8-0.19-5.7-0.27c-0.52-0.02-0.94,0.31-0.94,0.74c0,10.77,0,21.53,0,32.3
			c0,0.43,0.42,0.79,0.94,0.79c1.9,0.01,3.8,0.02,5.7,0.04c0.52,0,0.94-0.34,0.94-0.77c0-10.66,0-21.33,0-31.99
			C190.12,106.55,189.7,106.18,189.19,106.15z M189.22,138.77c-0.01,0-0.02,0-0.04,0c-1.9-0.02-3.8-0.03-5.7-0.04
			c-0.01,0-0.02,0-0.04,0c0-10.62,0-21.24,0-31.86c0.01,0,0.02,0,0.04,0c1.9,0.08,3.8,0.17,5.7,0.27c0.01,0,0.02,0,0.04,0
			C189.22,117.68,189.22,128.22,189.22,138.77z"/>
		<path class="st4" d="M209.18,119.97c1.56,0.09,3.13,0.18,4.69,0.28c0.47,0.03,0.85-0.33,0.85-0.81c0-0.83,0-1.67,0-2.5
			c0-5.54-3.4-9.49-8.68-9.93c-6.59-0.54-8.96,3.99-8.96,8.32c0,5.14,0,10.28,0,15.42c0,4.34,2.36,9,8.96,9.05
			c5.28,0.04,8.68-3.3,8.68-8.53c0-1.23,0-2.47,0-3.7c0-0.48-0.38-0.88-0.85-0.9c-1.56-0.07-3.12-0.14-4.69-0.21
			c-0.47-0.02-0.86,0.36-0.86,0.84c0,1.31,0,2.61,0,3.92c0,1.12-0.71,1.67-2.11,1.64c-0.5-0.01-2.15-0.2-2.15-2.05
			c0-4.99,0-9.99,0-14.98c0-1.64,1.17-1.91,2.15-1.85c1.52,0.1,2.11,0.77,2.11,2.39c0,0.89,0,1.78,0,2.66
			C208.33,119.53,208.71,119.94,209.18,119.97z M206.22,113.04c-1.9-0.13-3.04,0.9-3.04,2.74c0,5,0,10.01,0,15.01
			c0,2.18,1.64,2.99,3.04,3.02c2.71,0.06,3-1.77,3-2.56c0-1.28,0-2.56,0-3.84c1.54,0.06,3.08,0.13,4.61,0.2c0,1.21,0,2.43,0,3.64
			c0,4.68-3.05,7.66-7.79,7.62c-5.94-0.06-8.06-4.21-8.06-8.08c0-5.13,0-10.27,0-15.4c0-3.86,2.12-7.89,8.06-7.42
			c4.74,0.39,7.79,3.92,7.79,8.91c0,0.81,0,1.63,0,2.44c-1.54-0.1-3.07-0.2-4.61-0.29c0-0.86,0-1.73,0-2.59
			C209.22,114.3,208.24,113.18,206.22,113.04z"/>
		<path class="st4" d="M91.45,124.49C91.45,124.49,91.45,124.49,91.45,124.49c1.51-1.12,3.3-3.5,3.3-8.47
			c0-7.23-3.04-10.38-9.85-10.11c-2.5,0.1-5.01,0.21-7.5,0.34c-0.47,0.02-0.86,0.45-0.85,0.94c0,10.38,0,20.77,0,31.15
			c0,0.5,0.38,0.9,0.85,0.89c1.95-0.01,3.91-0.03,5.87-0.04c0.47,0,0.86-0.4,0.86-0.91c-0.06-1.45-0.04-8.92,0.02-10.56
			c0.04-0.01,0.1-0.01,0.19-0.01c0.39-0.02,0.5,0.06,0.5,0.07c0.12,0.2,0.65,1.62,3.07,10.6c0.01,0.05,0.03,0.1,0.04,0.15
			c0.11,0.38,0.45,0.64,0.82,0.64c2-0.01,4.01-0.02,6.01-0.03c0.27,0,0.53-0.14,0.7-0.38c0.16-0.24,0.21-0.54,0.12-0.82
			C94.21,133.44,92.83,128.96,91.45,124.49z M88.79,138.18c-0.01-0.03-0.01-0.05-0.02-0.08c-2.73-10.15-3.07-10.68-3.18-10.87
			c-0.22-0.37-0.58-0.51-1.26-0.5c0,0-0.01,0-0.01,0c-0.9,0.02-1.06,0.55-1.07,0.86c-0.07,1.44-0.08,8.89-0.03,10.62
			c-1.93,0.01-3.85,0.03-5.77,0.04c0-10.34,0-20.68,0-31.03c2.48-0.12,4.97-0.23,7.46-0.33c6.35-0.25,8.95,2.43,8.94,9.14
			c0,4.52-1.57,6.64-2.89,7.62c-0.2,0.15-0.39,0.29-0.59,0.44c1.44,4.66,2.89,9.34,4.33,14.04
			C92.73,138.15,90.76,138.16,88.79,138.18z"/>
		<path class="st4" d="M111.89,114.58c-0.05-0.24-0.25-0.42-0.47-0.41c0,0,0,0,0,0c-0.13,0.01-0.26,0.02-0.4,0.03
			c-0.02,0.13-0.05,0.27-0.07,0.4c-0.51,2.82-1.3,7.86-1.79,11.16c-0.02,0.16,0.02,0.32,0.11,0.45c0.06,0.07,0.12,0.13,0.17,0.2
			c0.07,0,0.14,0,0.21,0c0.14,0,0.5,0,0.93,0c1.08-0.01,2.67-0.02,2.77-0.03c0.15,0,0.29-0.08,0.39-0.21
			c0.05-0.08,0.1-0.15,0.14-0.23c-0.01-0.08-0.03-0.15-0.04-0.23C113.23,122.08,112.4,117.23,111.89,114.58z M110.12,125.4
			c0.37-2.46,0.88-5.69,1.31-8.28c0.45,2.48,0.99,5.63,1.43,8.26C112.15,125.38,110.85,125.4,110.12,125.4z"/>
	</g>
	<g>
		<path class="st4" d="M150.56,19.42h-4.11v-2.34h2.81c0.3,0,0.54-0.22,0.54-0.48v-2.35c0-0.27-0.24-0.48-0.54-0.48h-2.81v-1.89
			h3.82c0.3,0,0.54-0.22,0.54-0.48V9.04c0-0.27-0.24-0.48-0.54-0.48h-7.47c-0.3,0-0.54,0.22-0.54,0.48v13.21
			c0,0.27,0.24,0.48,0.54,0.48h7.76c0.3,0,0.54-0.22,0.54-0.48v-2.35C151.1,19.64,150.85,19.42,150.56,19.42z M149.04,14.47v1.89
			h-3.35v3.77h4.65v1.89h-7.31V9.27h7.02v1.89h-4.35v3.31H149.04z"/>
		<path class="st4" d="M137.82,8.83h-2.96c-0.34,0-0.62,0.25-0.62,0.55v4.63h-2.05V9.38c0-0.3-0.28-0.55-0.62-0.55h-2.96
			c-0.34,0-0.62,0.25-0.62,0.55v12.81c0,0.3,0.28,0.55,0.62,0.55h2.96c0.34,0,0.62-0.25,0.62-0.55v-4.6h2.05v4.6
			c0,0.3,0.28,0.55,0.62,0.55h2.96c0.34,0,0.62-0.25,0.62-0.55V9.38C138.43,9.08,138.16,8.83,137.82,8.83z M135,14.73l0-5.19
			l2.66-0.01l0,12.5h-2.66l0-5.15h-3.57l0,5.15l-2.66,0.01l0-12.5l2.66-0.01v5.2H135z"/>
		<path class="st4" d="M124.89,8.85h-10.71c-0.29,0-0.52,0.26-0.52,0.58v2.61c0,0.32,0.23,0.58,0.52,0.58h3.31v9.81
			c0,0.27,0.28,0.48,0.63,0.48h2.93c0.35,0,0.63-0.21,0.63-0.48v-9.81h3.21c0.29,0,0.52-0.26,0.52-0.58V9.42
			C125.4,9.11,125.17,8.85,124.89,8.85z M124.64,9.56v2.34h-3.72l-0.01,10.29l-2.67,0l-0.01-10.29h-3.82l0-2.34H124.64z"/>
	</g>
	<g>
		<path class="st4" d="M170.64,46.97c-1.46-0.47-3.26,0.26-5.52,2.24c-1.19,1.05-2.34,2.41-3.62,4.29c-1.7,2.48-3.23,5.26-4.67,8.49
			c-1.54,3.43-3.35,8.13-1.29,9.29c0.29,0.17,0.62,0.24,0.96,0.24c4.02-0.01,11.28-10.34,12.61-12.71c0.3-0.54,2.54-4.82,3-6.07
			c0.43-1.18,0.57-3.04,0.01-4.33C171.81,47.68,171.3,47.19,170.64,46.97z M171.19,52.32c-0.42,1.13-2.56,5.25-2.93,5.91
			c-2.33,4.17-9.87,13.41-12.27,12.06c-0.42-0.24-1.1-1.47,1.73-7.79c1.42-3.17,2.92-5.88,4.57-8.31c1.23-1.8,2.33-3.09,3.45-4.09
			c1.62-1.43,2.96-2.14,4.01-2.14c0.22,0,0.42,0.03,0.61,0.09c0.39,0.13,0.67,0.4,0.86,0.85C171.64,49.84,171.53,51.38,171.19,52.32
			z"/>
		<path class="st4" d="M95.56,58.11c-0.14-0.14-0.28-0.27-0.42-0.41c-0.45-0.44-1.06-0.66-1.66-0.59c-0.6,0.07-1.14,0.41-1.48,0.93
			c-0.33,0.51-0.67,1.04-1.03,1.59c-3.52,5.43-8.32,12.53-8.7,17.37c-0.03,0.36,0.1,0.7,0.35,0.96c0.23,0.23,0.54,0.38,0.87,0.4
			c0.08,0.01,0.16,0.01,0.24,0c6.03-0.5,14.21-7.76,15.34-13.54C99.49,61.98,97.49,60,95.56,58.11z M98.04,64.59
			c-1.04,5.29-8.89,12.23-14.48,12.7c-0.11,0.01-0.19-0.02-0.23-0.06c-0.01-0.01-0.02-0.02-0.02-0.06c0,0,0,0,0,0
			c0.36-4.58,5.08-11.56,8.53-16.9c0.36-0.55,0.71-1.09,1.03-1.6c0.17-0.26,0.43-0.43,0.73-0.46c0.04,0,0.08-0.01,0.13-0.01
			c0.26,0.01,0.51,0.11,0.7,0.3c0.14,0.14,0.28,0.28,0.42,0.41C96.66,60.68,98.37,62.37,98.04,64.59z"/>
		<path class="st4" d="M229.98,71.97c-1.51-2.96-5.42-6.62-15.49-7.28c-4.4-0.28-8.27,0.59-11.57,2.04c-1-1.33-1.81-2.99-2.46-4.68
			c4.54-4.69,8.73-10.97,12.82-19.03c3.23-6.38,5.3-13.37,5.97-20.4c0.67-7.03,0.29-12.36-1.18-16.41c-0.9-2.5-2.28-4.01-4.1-4.45
			c-5.82-1.52-13.46,9.06-13.54,9.23c-6.64,9.42-10.65,22.11-10.71,33.33c-0.02,0.26-0.54,6.59,1.67,15.68
			c-1.74,1.83-3.82,3.8-6.27,5.11c-2.25,1.2-5.4,2.05-7.51,0.83c-1.25-0.72-2.12-2.37-2.26-4.29c-0.14-1.88,0.36-3.79,0.88-5.41
			c0.13-0.42,0.27-0.83,0.41-1.25c0.46-1.39,0.94-2.82,1.19-4.32c0.47-2.77-0.16-5.34-1.78-7.25c-1.81-2.15-4.66-3.2-7.61-2.8
			c-3.16,0.43-6.24,2.39-9.14,5.83c-1.76,2.08-3.25,4.47-4.63,6.74c-1.07,1.76-2.39,3.93-3.5,6.32c-0.65,0.53-1.32,1.08-2.01,1.64
			c-7.06,5.81-15.85,12.9-24.51,11.74c-0.98-0.13-1.6-0.43-1.87-0.93c-0.27-0.48-0.23-1.11-0.1-1.93c0.7-4.4,2.31-8.7,4.66-12.45
			c1.31-2.09,2.56-3.7,3.83-4.91c1.34-1.27,3.59-3.09,4.22-3.16c0.26,0.41-0.15,2.58-0.37,3.76c-0.42,2.22-0.82,4.32-0.11,5.26
			c0.17,0.23,0.49,0.51,1.02,0.48c2.48-0.08,4.5-3.55,5.41-6.96c0.78-2.91,0.94-6.55-0.93-8.02c-0.88-0.69-2.03-1-3.58-0.98
			c-7.16,0.16-12.64,6.35-15.27,9.96c-0.58,0.8-1.12,1.61-1.63,2.43c-12.44,4.64-15.17-0.1-17.37-3.74
			c-0.88-1.47-1.71-2.85-3.04-3.37c-6.53-2.5-11.44,4.26-14.08,7.73c-3.74,4.97-6.61,10.15-8.54,15.51
			c-0.82,2.27-1.72,5.24-1.49,8.39c0.11,1.54,0.52,2.72,1.24,3.6c0.88,1.08,2.25,1.74,4.07,1.94c0.46,0.05,0.96,0.07,1.48,0.06
			c10.13-0.15,19.23-7.5,22.62-18.12c0.16-0.5,0.29-1.16,0.41-1.75c0.05-0.27,0.12-0.6,0.18-0.85c0.31,0.15,0.64,0.25,0.96,0.34
			c2.92,0.78,6.31,0.65,9.27-0.36c-0.27,0.92-0.52,1.84-0.71,2.77c-0.62,3-0.9,7.22,1.25,10.39c1.61,2.37,4.43,3.84,7.62,3.95
			c0.17,0.01,0.34,0.01,0.5,0.01c8.46-0.06,16.6-5.8,23.78-10.98c0.35-0.25,0.69-0.5,1.04-0.75c0.2,1.17,0.57,2.33,1.17,3.46
			c1.3,2.45,3.64,3.87,6.32,3.86c0.19,0,0.39-0.01,0.59-0.02c1.97-0.16,4.03-1.06,5.97-2.61c1.09-0.87,2.17-1.95,3.41-3.41
			c0.47-0.56,0.89-1.15,1.3-1.73c0.45-0.64,0.88-1.25,1.38-1.81c0.04,0.12,0.07,0.25,0.09,0.33c0.04,0.16,0.08,0.3,0.12,0.39
			c0.31,0.83,0.69,1.69,1.28,2.42c0.83,1,1.9,1.79,3.18,2.36c2.87,1.27,5.83,1.08,7.81,0.7c4.83-0.92,9.05-4.07,12.58-7.08
			c0.67,1.36,1.39,2.68,2.08,3.67c-0.78,0.63-1.49,1.27-2.13,1.9c-6.01,5.83-10.28,14.41-10.62,21.25
			c-0.13,2.52,0.61,3.01,1.82,3.61c0.34,0.17,0.84,0.27,1.38,0.24c0.37-0.02,0.77-0.11,1.14-0.28c0.64-0.3,1.11-0.8,1.36-1.46
			c0.15-0.4,0.35-1.19,0.62-2.28c0.46-1.86,1.09-4.4,1.89-6.52c0.86-2.28,3.35-7.83,8.43-11.65c1.55,1.84,3.77,3.94,4.94,4.95
			c5.4,4.7,12.64,4.92,17.6,3.65c3.51-0.89,6.16-2.54,7.28-4.46C230.96,78.28,231.59,75.11,229.98,71.97z M106.6,64.09
			c-0.45-0.12-0.81-0.25-1.1-0.46c-0.16-0.12-0.36-0.15-0.54-0.08c-0.4,0.16-0.5,0.67-0.75,1.89c-0.11,0.56-0.24,1.19-0.38,1.62
			C100.62,77.1,91.66,84.33,82.08,84.5c-2.21,0.05-3.77-0.48-4.64-1.54c-0.56-0.68-0.87-1.65-0.97-2.95c-0.22-2.97,0.65-5.82,1.43-8
			c1.89-5.27,4.71-10.37,8.38-15.26c2.47-3.26,7.08-9.59,12.89-7.35c1.01,0.39,1.71,1.56,2.52,2.92c2.2,3.64,5.18,8.78,17.32,4.69
			c-1.2,2.11-2.18,4.25-2.93,6.43C113.13,64.66,109.6,64.89,106.6,64.09z M148.99,69c-0.48,0.34-0.95,0.68-1.44,1.03
			c-7.08,5.1-15.1,10.75-23.28,10.82c-3.08,0.03-5.79-1.29-7.29-3.49c-1.92-2.83-1.64-6.72-1.07-9.5c1-4.88,3.17-9.61,6.44-14.14
			c2.52-3.46,7.75-9.38,14.5-9.53c1.32-0.03,2.29,0.23,2.99,0.78c1.17,0.92,1.39,3.64,0.55,6.78c-0.81,3.02-2.61,6.1-4.49,6.16
			c-0.17,0-0.2-0.05-0.22-0.08c-0.39-0.53,0.02-2.72,0.32-4.32c0.46-2.44,0.83-4.37-0.13-4.99c-1.01-0.65-4.08,2.1-5.35,3.31
			c-1.33,1.27-2.64,2.95-4,5.12c-2.43,3.88-4.09,8.32-4.82,12.87c-0.15,0.92-0.22,1.88,0.24,2.7c0.6,1.08,1.79,1.35,2.63,1.46
			c9.03,1.23,17.99-6.01,25.19-11.93c0.18-0.15,0.35-0.29,0.53-0.43C149.4,64,148.83,66.51,148.99,69z M181.61,73.07
			c-1.86,0.35-4.63,0.53-7.28-0.65c-1.15-0.51-2.09-1.21-2.82-2.09c-0.47-0.57-0.78-1.25-1.1-2.1c-0.02-0.06-0.05-0.16-0.08-0.28
			c-0.15-0.56-0.28-0.97-0.55-1.17c-0.44-0.32-0.79-0.26-1.06,0.19c-0.03,0.05-0.06,0.1-0.11,0.15c-0.56,0.62-1.04,1.3-1.5,1.96
			c-0.41,0.58-0.79,1.13-1.23,1.65c-1.19,1.4-2.23,2.44-3.27,3.27c-1.79,1.43-3.68,2.26-5.46,2.4c-2.58,0.21-4.76-1-5.98-3.29
			c-3.45-6.49,1.24-14.19,4.34-19.29c1.36-2.23,2.82-4.57,4.53-6.6c2.74-3.25,5.61-5.09,8.53-5.49c2.64-0.36,5.16,0.57,6.76,2.45
			c1.39,1.64,1.93,3.87,1.52,6.29c-0.24,1.41-0.7,2.8-1.15,4.14c-0.14,0.42-0.28,0.84-0.41,1.26c-0.55,1.73-1.09,3.78-0.93,5.88
			c0.17,2.29,1.24,4.28,2.79,5.17c3.07,1.77,7.21-0.2,8.41-0.83c2.43-1.3,4.48-3.19,6.21-4.98c0.38,0.98,1.16,2.96,2.11,4.99
			C190.42,69.07,186.28,72.19,181.61,73.07z M192.53,60.07c-2.27-9.07-1.74-15.58-1.73-15.69c0.06-11.02,3.99-23.44,10.5-32.67
			c2.82-4.02,8.71-9.82,12.54-8.87c1.43,0.35,2.49,1.55,3.25,3.66c1.4,3.89,1.76,9.06,1.11,15.94c-0.66,6.91-2.68,13.78-5.85,20.04
			c-3.94,7.78-7.97,13.86-12.3,18.42c-0.8-2.32-1.3-4.54-1.55-5.8c-0.11-0.56-0.12-0.68-0.21-1.25c0,0,0.12-0.17,0.17-0.22
			c6.08-7.66,10.25-15.61,12.4-23.82c1.21-4.64,1.87-8.36,1.77-11.77c-0.07-2.17-0.63-6.76-1.73-7.35
			c-0.23-0.12-0.49-0.09-0.67,0.09c-7.23,6.87-11.41,19.95-12.9,29.74c-0.79,5.18-0.72,10.19,0.19,14.82
			c0.59,2.99,1.93,8.33,4.44,11.84c-1.73,0.85-3.28,1.84-4.66,2.89C195.18,67.1,192.71,60.58,192.53,60.07z M198.07,52.46
			c-0.46-3.73-0.38-7.68,0.24-11.74c1.44-9.45,5.42-22,12.26-28.78c0.44,1.34,1.06,4.44,1,6.38c-0.09,3.27-0.51,6.68-1.68,11.18
			C207.82,37.4,203.85,45.06,198.07,52.46z M229.3,79.24c-0.95,1.64-3.42,3.11-6.59,3.91c-4.74,1.19-11.65,0.98-16.8-3.5
			c-1.12-0.97-3.22-2.96-4.73-4.72c1.33-0.9,2.82-1.67,4.48-2.26c-0.02,0.03-0.05,0.05-0.07,0.07c4.08,4.62,9.53,7.05,13.87,6.37
			c2.83-0.44,4.06-2.15,4.02-3.64c-0.07-2.61-3.69-5.26-11.47-5.01c-0.14,0-0.28,0.01-0.42,0.02c-13.6,0.58-19.22,12.57-20.62,16.35
			c-0.82,2.19-1.46,4.77-1.93,6.66c-0.24,0.97-0.45,1.81-0.57,2.14c-0.14,0.37-0.41,0.65-0.79,0.83c-0.65,0.3-1.4,0.21-1.73,0.05
			c-1.02-0.5-1.36-0.67-1.27-2.59c0.27-5.45,3.55-13.94,10.27-20.46c3.62-3.53,9.38-7.46,16.99-7.74c0.8-0.03,1.63-0.02,2.47,0.03
			c9.61,0.6,13.29,3.99,14.69,6.74C230.5,75.26,229.97,78.09,229.3,79.24z M206.66,72.36c1.62-0.47,3.39-0.78,5.33-0.84
			c7.56-0.26,10.45,2.34,10.5,4.06c0.03,1.23-1.18,2.22-3.09,2.51C215.52,78.69,210.45,76.46,206.66,72.36z"/>
	</g>
	<path class="st4" d="M62.9,64.11c4.36-3.16,8.31-6.68,11.71-10.47c5.37-5.99,11.98-15.48,13.01-27.43
		c0.29-3.42-0.03-6.18-0.98-8.46c-1.11-2.65-3.14-4.57-5.9-5.56c-3.65-1.31-8.3-0.81-11.84,1.34c-4,2.42-7.45,6.41-10.26,11.88
		c-2.25,4.37-3.85,9.18-5.4,13.85c-0.14,0.43-0.29,0.86-0.43,1.3c-2.55,7.65-5.36,15.35-8.22,23.01c-4.68,0.84-10.6-1.08-12.98-6.51
		c-1.65-3.76-1.25-8.76,1.03-12.67c2.6-4.45,6.27-5.93,10.53-7.64c0.5-0.2,1.01-0.4,1.51-0.61c1.13-0.47,1.6-1.51,1.78-1.9
		c0.02-0.04,0.03-0.08,0.05-0.11c0-0.08,0-0.17,0.01-0.25c0.03-0.51,0.08-1.57-0.95-2.72c-0.6-0.67-1.38-1.02-2.39-1.07
		c-0.54-0.03-1.14,0.04-1.8,0.2c-7.35,1.77-13.47,5.93-16.78,11.47c-2.84,4.74-3.68,10.58-2.25,15.53c1.28,4.42,4.08,7.43,6.2,9.16
		c3.9,3.18,8.47,5.01,12.95,5.28c-0.43,1.13-0.85,2.27-1.28,3.39c-0.44,1.16-0.87,2.32-1.31,3.48c-6.37-0.04-12.87,1.4-18.48,4.32
		c-6.3,3.28-11.66,8.59-15.1,15c-1.81,3.36-2.84,6.61-3.07,9.64c-0.29,3.77,0.67,7.25,2.63,9.52c2.75,3.18,6.8,3.38,9.01,3.21
		c0.02,0,0.04,0,0.06,0c5.32-0.44,10.9-3.51,15.71-8.52c7.18-7.49,11.87-17.41,15.15-25.2c5.83,1.19,13.15,4.31,20.23,8.51
		c1.88,1.12,3.65,0.38,4.43-0.9c0.78-1.29,0.68-3.31-1.38-4.74c-6.55-4.54-13.76-8.1-19.79-9.66c-0.37-0.1-0.75-0.18-1.13-0.26
		c0.82-1.95,1.98-4.98,3.26-8.37C54.87,69.95,59.29,66.72,62.9,64.11z M29.21,65.5c-2-1.63-4.65-4.46-5.84-8.59
		c-1.33-4.61-0.54-10.06,2.12-14.51c3.16-5.3,9.05-9.29,16.15-11c0.57-0.14,1.08-0.2,1.53-0.18c0.74,0.03,1.27,0.26,1.68,0.72
		c0.7,0.78,0.67,1.43,0.65,1.86c0,0.01,0,0.02,0,0.03c-0.22,0.46-0.55,0.98-1.17,1.24c-0.51,0.21-1.01,0.41-1.51,0.61
		c-4.24,1.7-8.25,3.31-11.04,8.08c-2.48,4.23-2.91,9.69-1.1,13.81c2.49,5.69,8.51,7.86,13.46,7.2c-0.73,1.94-1.46,3.89-2.19,5.82
		C37.56,70.41,33.05,68.63,29.21,65.5z M67.54,90.38c1.51,1.04,1.65,2.38,1.13,3.25c-0.48,0.8-1.63,1.29-3.01,0.47
		c-7.52-4.45-15.31-7.72-21.38-8.81c-8.71-1.57-18.19,3.26-21.85,5.47c-4.93,2.94-8.69,7.19-10.57,11.96
		c-1.13,2.86-1.31,6.63,0.96,8.11c0.76,0.5,1.75,0.67,2.92,0.5c1.92-0.28,3.87-1.29,6.14-3.16c6.63-5.5,11.27-13.73,15.3-21.72
		c-0.01-0.01-0.02-0.01-0.03-0.02c2.4-0.36,4.67-0.38,6.69-0.05c-3.23,7.65-7.83,17.31-14.79,24.57c-4.63,4.82-9.97,7.76-15.04,8.16
		c-0.02,0-0.04,0-0.06,0c-2.04,0.15-5.77-0.02-8.25-2.89c-1.74-2-2.62-5.23-2.36-8.6c0.22-2.84,1.2-5.91,2.92-9.1
		c3.33-6.2,8.53-11.35,14.63-14.53c4.89-2.55,10.46-3.96,16.02-4.21c3.8-0.17,7.6,0.2,11.17,1.11C53.99,82.4,61.09,85.9,67.54,90.38
		z M35.9,86.64c-3.88,7.63-8.36,15.41-14.62,20.59c-2.11,1.74-3.89,2.68-5.62,2.92c-0.95,0.14-1.72,0.01-2.3-0.36
		c-1.66-1.09-1.55-4.17-0.57-6.64c1.78-4.51,5.37-8.55,10.09-11.37C27.23,89.18,31.74,87.43,35.9,86.64z M40.06,78.61
		c0.39-1.03,0.78-2.07,1.16-3.1c4.3-11.42,8.74-23.06,12.58-34.59c0.14-0.43,0.29-0.86,0.43-1.3c1.54-4.63,3.12-9.39,5.33-13.68
		c2.72-5.29,6.04-9.14,9.88-11.46c3.3-2,7.61-2.48,10.99-1.27c2.46,0.88,4.28,2.59,5.26,4.95c0.88,2.12,1.18,4.71,0.9,7.95
		c-1.01,11.65-7.47,20.93-12.72,26.79c-3.35,3.73-7.23,7.19-11.57,10.33c-3.48,2.51-7.37,5.35-11.31,6.62
		c0.3-0.78,0.6-1.57,0.9-2.37c0.54-1.42,1.08-2.86,1.62-4.25c0.01,0.03,0.03,0.06,0.04,0.09c5.99-3.31,14.62-13.02,16.26-15.46
		c10.75-16.08,10.18-23.83,9.96-25.31c-0.16-1-0.8-1.63-1.83-1.78c-4.01-0.62-8.01,4.34-10.02,7.4c-3.54,5.34-5.9,11.19-8.41,17.43
		c-0.99,2.46-2.01,5.02-3.11,7.55c-1.36,3.13-3.45,8.6-5.47,13.94c-0.4,1.06-0.8,2.1-1.18,3.12c0,0,0,0-0.01,0c0,0,0,0.01,0,0.01
		c-1.42,3.74-2.69,7.08-3.54,9.1C44.19,78.91,42.14,78.68,40.06,78.61z M54.08,61.72c1.25-3.23,2.4-6.15,3.26-8.13
		c1.11-2.55,2.13-5.11,3.12-7.58c2.48-6.18,4.83-11.97,8.3-17.22c1.79-2.7,5.2-7.03,8.52-6.99c0.17,0,0.34,0.02,0.52,0.04
		c0.74,0.11,0.89,0.55,0.94,0.87c0.13,0.88,0.95,8.46-9.78,24.52C67.61,49.22,59.87,58.02,54.08,61.72z"/>
</g>
</svg>
