<svg id="Layer_1" data-name="Layer 1" xmlns="http://www.w3.org/2000/svg" xmlns:xlink="http://www.w3.org/1999/xlink" viewBox="0 0 1918 388"><defs><style>.cls-1,.cls-4{fill:none;}.cls-2{clip-path:url(#clip-path);}.cls-3{opacity:0.2;}.cls-4{font-size:153.91px;stroke:#fff;stroke-miterlimit:10;stroke-width:0.67px;font-family:BebasNeue, Bebas Neue;letter-spacing:0.12em;}.cls-5{letter-spacing:0.09em;}.cls-6{letter-spacing:0.12em;}.cls-7{letter-spacing:0.09em;}.cls-8{letter-spacing:0.12em;}.cls-9{clip-path:url(#clip-path-2);}</style><clipPath id="clip-path"><rect class="cls-1" x="2442" y="224" width="568" height="860.83"/></clipPath><clipPath id="clip-path-2"><rect class="cls-1" x="-341" y="-1244" width="1769" height="823"/></clipPath></defs><g class="cls-2"><image width="3840" height="1972" transform="translate(1592.08 -384.65) scale(1.22)" xlink:href="../../../../Desktop/hey%20there%20friend.PNG"/></g><g class="cls-3"><text class="cls-4" transform="translate(-1.99 106.92) scale(1.02 1)">CRE<tspan class="cls-5" x="235.64" y="0">A</tspan><tspan x="311.67" y="0">TING A</tspan><tspan class="cls-6" x="723.39" y="0">D</tspan><tspan x="805.27" y="0">AP</tspan><tspan class="cls-7" x="964.42" y="0">T</tspan><tspan class="cls-8" x="1032.6" y="0">ABLE AND RESILIENT BRANDS</tspan></text></g><g class="cls-3"><text class="cls-4" transform="translate(-1899.99 242.92) scale(1.02 1)">CRE<tspan class="cls-5" x="235.64" y="0">A</tspan><tspan x="311.67" y="0">TING A</tspan><tspan class="cls-6" x="723.39" y="0">D</tspan><tspan x="805.27" y="0">AP</tspan><tspan class="cls-7" x="964.42" y="0">T</tspan><tspan class="cls-8" x="1032.6" y="0">ABLE AND RESILIENT BRANDS</tspan></text></g><g class="cls-3"><text class="cls-4" transform="translate(1015.01 242.92) scale(1.02 1)">CRE<tspan class="cls-5" x="235.64" y="0">A</tspan><tspan x="311.67" y="0">TING A</tspan><tspan class="cls-6" x="723.39" y="0">D</tspan><tspan x="805.27" y="0">AP</tspan><tspan class="cls-7" x="964.42" y="0">T</tspan><tspan class="cls-8" x="1032.6" y="0">ABLE AND RESILIENT BRANDS</tspan></text></g><g class="cls-3"><text class="cls-4" transform="translate(-918.99 382.92) scale(1.02 1)">CRE<tspan class="cls-5" x="235.64" y="0">A</tspan><tspan x="311.67" y="0">TING A</tspan><tspan class="cls-6" x="723.39" y="0">D</tspan><tspan x="805.27" y="0">AP</tspan><tspan class="cls-7" x="964.42" y="0">T</tspan><tspan class="cls-8" x="1032.6" y="0">ABLE AND RESILIENT BRANDS</tspan></text></g><g class="cls-9"><image width="1200" height="800" transform="matrix(0, -4.02, 4.2, 0, -998.64, 661.26)" xlink:href="../../_INSPIRATION%20PICS/2-.jpg"/></g></svg>